M48
; DRILL file {KiCad 8.0.6} date 2024-11-12T16:37:33+0100
; FORMAT={-:-/ absolute / metric / decimal}
; #@! TF.CreationDate,2024-11-12T16:37:33+01:00
; #@! TF.GenerationSoftware,Kicad,Pcbnew,8.0.6
; #@! TF.FileFunction,Plated,1,2,PTH
FMAT,2
METRIC
; #@! TA.AperFunction,Plated,PTH,ViaDrill
T1C0.600
; #@! TA.AperFunction,Plated,PTH,ComponentDrill
T2C0.750
%
G90
G05
T1
X164.481Y-107.89
X164.481Y-131.29
X164.481Y-154.69
X164.481Y-178.09
X165.1Y-111.0
X165.1Y-134.4
X165.1Y-157.8
X165.1Y-181.2
X166.4Y-112.1
X166.4Y-135.5
X166.4Y-158.9
X166.4Y-182.3
X166.964Y-107.357
X166.964Y-130.757
X166.964Y-154.157
X166.964Y-177.557
X167.0Y-100.148
X167.0Y-123.548
X167.0Y-146.948
X167.0Y-170.348
X167.029Y-102.161
X167.029Y-125.561
X167.029Y-148.961
X167.029Y-172.361
X167.1Y-108.65
X167.1Y-132.05
X167.1Y-155.45
X167.1Y-178.85
X167.225Y-104.362
X167.225Y-127.762
X167.225Y-151.162
X167.225Y-174.562
X168.694Y-102.4
X168.694Y-125.8
X168.694Y-149.2
X168.694Y-172.6
X169.421Y-107.05
X169.421Y-130.45
X169.421Y-153.85
X169.421Y-177.25
X169.723Y-103.356
X169.723Y-126.756
X169.723Y-150.156
X169.723Y-173.556
X171.575Y-104.119
X171.575Y-127.519
X171.575Y-150.919
X171.575Y-174.319
X172.254Y-106.494
X172.254Y-129.894
X172.254Y-153.294
X172.254Y-176.694
X172.399Y-108.002
X172.399Y-131.402
X172.399Y-154.802
X172.399Y-178.202
X173.196Y-105.75
X173.196Y-129.15
X173.196Y-152.55
X173.196Y-175.95
X173.991Y-108.953
X173.991Y-132.353
X173.991Y-155.753
X173.991Y-179.153
X174.373Y-105.518
X174.373Y-128.918
X174.373Y-152.318
X174.373Y-175.718
X175.544Y-105.256
X175.544Y-128.656
X175.544Y-152.056
X175.544Y-175.456
X176.879Y-105.056
X176.879Y-128.456
X176.879Y-151.856
X176.879Y-175.256
X178.235Y-103.356
X178.235Y-126.756
X178.235Y-150.156
X178.235Y-173.556
X179.3Y-102.325
X179.3Y-125.725
X179.3Y-149.125
X179.3Y-172.525
X179.722Y-103.555
X179.722Y-126.955
X179.722Y-150.355
X179.722Y-173.755
X181.409Y-107.966
X181.409Y-131.366
X181.409Y-154.766
X181.409Y-178.166
X181.5Y-110.55
X181.5Y-133.95
X181.5Y-157.35
X181.5Y-180.75
X182.056Y-106.758
X182.056Y-130.158
X182.056Y-153.558
X182.056Y-176.958
X182.829Y-107.675
X182.829Y-131.075
X182.829Y-154.475
X182.829Y-177.875
X187.881Y-107.89
X187.881Y-131.29
X187.881Y-154.69
X187.881Y-178.09
X188.5Y-111.0
X188.5Y-134.4
X188.5Y-157.8
X188.5Y-181.2
X189.8Y-112.1
X189.8Y-135.5
X189.8Y-158.9
X189.8Y-182.3
X190.364Y-107.357
X190.364Y-130.757
X190.364Y-154.157
X190.364Y-177.557
X190.4Y-100.148
X190.4Y-123.548
X190.4Y-146.948
X190.4Y-170.348
X190.429Y-102.161
X190.429Y-125.561
X190.429Y-148.961
X190.429Y-172.361
X190.5Y-108.65
X190.5Y-132.05
X190.5Y-155.45
X190.5Y-178.85
X190.625Y-104.362
X190.625Y-127.762
X190.625Y-151.162
X190.625Y-174.562
X192.094Y-102.4
X192.094Y-125.8
X192.094Y-149.2
X192.094Y-172.6
X192.821Y-107.05
X192.821Y-130.45
X192.821Y-153.85
X192.821Y-177.25
X193.123Y-103.356
X193.123Y-126.756
X193.123Y-150.156
X193.123Y-173.556
X194.975Y-104.119
X194.975Y-127.519
X194.975Y-150.919
X194.975Y-174.319
X195.654Y-106.494
X195.654Y-129.894
X195.654Y-153.294
X195.654Y-176.694
X195.799Y-108.002
X195.799Y-131.402
X195.799Y-154.802
X195.799Y-178.202
X196.596Y-105.75
X196.596Y-129.15
X196.596Y-152.55
X196.596Y-175.95
X197.391Y-108.953
X197.391Y-132.353
X197.391Y-155.753
X197.391Y-179.153
X197.773Y-105.518
X197.773Y-128.918
X197.773Y-152.318
X197.773Y-175.718
X198.944Y-105.256
X198.944Y-128.656
X198.944Y-152.056
X198.944Y-175.456
X200.279Y-105.056
X200.279Y-128.456
X200.279Y-151.856
X200.279Y-175.256
X201.635Y-103.356
X201.635Y-126.756
X201.635Y-150.156
X201.635Y-173.556
X202.7Y-102.325
X202.7Y-125.725
X202.7Y-149.125
X202.7Y-172.525
X203.122Y-103.555
X203.122Y-126.955
X203.122Y-150.355
X203.122Y-173.755
X204.809Y-107.966
X204.809Y-131.366
X204.809Y-154.766
X204.809Y-178.166
X204.9Y-110.55
X204.9Y-133.95
X204.9Y-157.35
X204.9Y-180.75
X205.456Y-106.758
X205.456Y-130.158
X205.456Y-153.558
X205.456Y-176.958
X206.229Y-107.675
X206.229Y-131.075
X206.229Y-154.475
X206.229Y-177.875
X211.281Y-107.89
X211.281Y-131.29
X211.281Y-154.69
X211.281Y-178.09
X211.9Y-111.0
X211.9Y-134.4
X211.9Y-157.8
X211.9Y-181.2
X213.2Y-112.1
X213.2Y-135.5
X213.2Y-158.9
X213.2Y-182.3
X213.764Y-107.357
X213.764Y-130.757
X213.764Y-154.157
X213.764Y-177.557
X213.8Y-100.148
X213.8Y-123.548
X213.8Y-146.948
X213.8Y-170.348
X213.829Y-102.161
X213.829Y-125.561
X213.829Y-148.961
X213.829Y-172.361
X213.9Y-108.65
X213.9Y-132.05
X213.9Y-155.45
X213.9Y-178.85
X214.025Y-104.362
X214.025Y-127.762
X214.025Y-151.162
X214.025Y-174.562
X215.494Y-102.4
X215.494Y-125.8
X215.494Y-149.2
X215.494Y-172.6
X216.221Y-107.05
X216.221Y-130.45
X216.221Y-153.85
X216.221Y-177.25
X216.523Y-103.356
X216.523Y-126.756
X216.523Y-150.156
X216.523Y-173.556
X218.375Y-104.119
X218.375Y-127.519
X218.375Y-150.919
X218.375Y-174.319
X219.054Y-106.494
X219.054Y-129.894
X219.054Y-153.294
X219.054Y-176.694
X219.199Y-108.002
X219.199Y-131.402
X219.199Y-154.802
X219.199Y-178.202
X219.996Y-105.75
X219.996Y-129.15
X219.996Y-152.55
X219.996Y-175.95
X220.791Y-108.953
X220.791Y-132.353
X220.791Y-155.753
X220.791Y-179.153
X221.173Y-105.518
X221.173Y-128.918
X221.173Y-152.318
X221.173Y-175.718
X222.344Y-105.256
X222.344Y-128.656
X222.344Y-152.056
X222.344Y-175.456
X223.679Y-105.056
X223.679Y-128.456
X223.679Y-151.856
X223.679Y-175.256
X225.035Y-103.356
X225.035Y-126.756
X225.035Y-150.156
X225.035Y-173.556
X226.1Y-102.325
X226.1Y-125.725
X226.1Y-149.125
X226.1Y-172.525
X226.522Y-103.555
X226.522Y-126.955
X226.522Y-150.355
X226.522Y-173.755
X228.209Y-107.966
X228.209Y-131.366
X228.209Y-154.766
X228.209Y-178.166
X228.3Y-110.55
X228.3Y-133.95
X228.3Y-157.35
X228.3Y-180.75
X228.856Y-106.758
X228.856Y-130.158
X228.856Y-153.558
X228.856Y-176.958
X229.629Y-107.675
X229.629Y-131.075
X229.629Y-154.475
X229.629Y-177.875
X234.681Y-107.89
X234.681Y-131.29
X234.681Y-154.69
X234.681Y-178.09
X235.3Y-111.0
X235.3Y-134.4
X235.3Y-157.8
X235.3Y-181.2
X236.6Y-112.1
X236.6Y-135.5
X236.6Y-158.9
X236.6Y-182.3
X237.164Y-107.357
X237.164Y-130.757
X237.164Y-154.157
X237.164Y-177.557
X237.2Y-100.148
X237.2Y-123.548
X237.2Y-146.948
X237.2Y-170.348
X237.229Y-102.161
X237.229Y-125.561
X237.229Y-148.961
X237.229Y-172.361
X237.3Y-108.65
X237.3Y-132.05
X237.3Y-155.45
X237.3Y-178.85
X237.425Y-104.362
X237.425Y-127.762
X237.425Y-151.162
X237.425Y-174.562
X238.894Y-102.4
X238.894Y-125.8
X238.894Y-149.2
X238.894Y-172.6
X239.621Y-107.05
X239.621Y-130.45
X239.621Y-153.85
X239.621Y-177.25
X239.923Y-103.356
X239.923Y-126.756
X239.923Y-150.156
X239.923Y-173.556
X241.775Y-104.119
X241.775Y-127.519
X241.775Y-150.919
X241.775Y-174.319
X242.454Y-106.494
X242.454Y-129.894
X242.454Y-153.294
X242.454Y-176.694
X242.599Y-108.002
X242.599Y-131.402
X242.599Y-154.802
X242.599Y-178.202
X243.396Y-105.75
X243.396Y-129.15
X243.396Y-152.55
X243.396Y-175.95
X244.191Y-108.953
X244.191Y-132.353
X244.191Y-155.753
X244.191Y-179.153
X244.573Y-105.518
X244.573Y-128.918
X244.573Y-152.318
X244.573Y-175.718
X245.744Y-105.256
X245.744Y-128.656
X245.744Y-152.056
X245.744Y-175.456
X247.079Y-105.056
X247.079Y-128.456
X247.079Y-151.856
X247.079Y-175.256
X248.435Y-103.356
X248.435Y-126.756
X248.435Y-150.156
X248.435Y-173.556
X249.5Y-102.325
X249.5Y-125.725
X249.5Y-149.125
X249.5Y-172.525
X249.922Y-103.555
X249.922Y-126.955
X249.922Y-150.355
X249.922Y-173.755
X251.609Y-107.966
X251.609Y-131.366
X251.609Y-154.766
X251.609Y-178.166
X251.7Y-110.55
X251.7Y-133.95
X251.7Y-157.35
X251.7Y-180.75
X252.256Y-106.758
X252.256Y-130.158
X252.256Y-153.558
X252.256Y-176.958
X253.029Y-107.675
X253.029Y-131.075
X253.029Y-154.475
X253.029Y-177.875
T2
X170.9Y-111.0
X170.9Y-134.4
X170.9Y-157.8
X170.9Y-181.2
X172.9Y-111.0
X172.9Y-134.4
X172.9Y-157.8
X172.9Y-181.2
X174.9Y-111.0
X174.9Y-134.4
X174.9Y-157.8
X174.9Y-181.2
X176.9Y-111.0
X176.9Y-134.4
X176.9Y-157.8
X176.9Y-181.2
X194.3Y-111.0
X194.3Y-134.4
X194.3Y-157.8
X194.3Y-181.2
X196.3Y-111.0
X196.3Y-134.4
X196.3Y-157.8
X196.3Y-181.2
X198.3Y-111.0
X198.3Y-134.4
X198.3Y-157.8
X198.3Y-181.2
X200.3Y-111.0
X200.3Y-134.4
X200.3Y-157.8
X200.3Y-181.2
X217.7Y-111.0
X217.7Y-134.4
X217.7Y-157.8
X217.7Y-181.2
X219.7Y-111.0
X219.7Y-134.4
X219.7Y-157.8
X219.7Y-181.2
X221.7Y-111.0
X221.7Y-134.4
X221.7Y-157.8
X221.7Y-181.2
X223.7Y-111.0
X223.7Y-134.4
X223.7Y-157.8
X223.7Y-181.2
X241.1Y-111.0
X241.1Y-134.4
X241.1Y-157.8
X241.1Y-181.2
X243.1Y-111.0
X243.1Y-134.4
X243.1Y-157.8
X243.1Y-181.2
X245.1Y-111.0
X245.1Y-134.4
X245.1Y-157.8
X245.1Y-181.2
X247.1Y-111.0
X247.1Y-134.4
X247.1Y-157.8
X247.1Y-181.2
M30
