G04 #@! TF.GenerationSoftware,KiCad,Pcbnew,8.0.6*
G04 #@! TF.CreationDate,2024-11-12T16:38:53+01:00*
G04 #@! TF.ProjectId,USB-C_Adapter - nutzen,5553422d-435f-4416-9461-70746572202d,rev?*
G04 #@! TF.SameCoordinates,Original*
G04 #@! TF.FileFunction,Paste,Top*
G04 #@! TF.FilePolarity,Positive*
%FSLAX46Y46*%
G04 Gerber Fmt 4.6, Leading zero omitted, Abs format (unit mm)*
G04 Created by KiCad (PCBNEW 8.0.6) date 2024-11-12 16:38:53*
%MOMM*%
%LPD*%
G01*
G04 APERTURE LIST*
G04 Aperture macros list*
%AMRoundRect*
0 Rectangle with rounded corners*
0 $1 Rounding radius*
0 $2 $3 $4 $5 $6 $7 $8 $9 X,Y pos of 4 corners*
0 Add a 4 corners polygon primitive as box body*
4,1,4,$2,$3,$4,$5,$6,$7,$8,$9,$2,$3,0*
0 Add four circle primitives for the rounded corners*
1,1,$1+$1,$2,$3*
1,1,$1+$1,$4,$5*
1,1,$1+$1,$6,$7*
1,1,$1+$1,$8,$9*
0 Add four rect primitives between the rounded corners*
20,1,$1+$1,$2,$3,$4,$5,0*
20,1,$1+$1,$4,$5,$6,$7,0*
20,1,$1+$1,$6,$7,$8,$9,0*
20,1,$1+$1,$8,$9,$2,$3,0*%
G04 Aperture macros list end*
%ADD10RoundRect,0.155000X0.155000X-0.212500X0.155000X0.212500X-0.155000X0.212500X-0.155000X-0.212500X0*%
%ADD11RoundRect,0.150000X0.150000X0.737500X-0.150000X0.737500X-0.150000X-0.737500X0.150000X-0.737500X0*%
%ADD12RoundRect,0.075000X0.075000X0.812500X-0.075000X0.812500X-0.075000X-0.812500X0.075000X-0.812500X0*%
%ADD13RoundRect,0.176875X0.723125X0.530625X-0.723125X0.530625X-0.723125X-0.530625X0.723125X-0.530625X0*%
%ADD14RoundRect,0.225000X0.675000X0.775000X-0.675000X0.775000X-0.675000X-0.775000X0.675000X-0.775000X0*%
%ADD15RoundRect,0.189375X0.710625X0.568125X-0.710625X0.568125X-0.710625X-0.568125X0.710625X-0.568125X0*%
%ADD16RoundRect,0.212500X0.637500X0.787500X-0.637500X0.787500X-0.637500X-0.787500X0.637500X-0.787500X0*%
%ADD17RoundRect,0.090000X0.090000X-0.139000X0.090000X0.139000X-0.090000X0.139000X-0.090000X-0.139000X0*%
%ADD18RoundRect,0.250000X0.475000X-0.337500X0.475000X0.337500X-0.475000X0.337500X-0.475000X-0.337500X0*%
%ADD19RoundRect,0.150000X-0.512500X-0.150000X0.512500X-0.150000X0.512500X0.150000X-0.512500X0.150000X0*%
%ADD20RoundRect,0.155000X-0.212500X-0.155000X0.212500X-0.155000X0.212500X0.155000X-0.212500X0.155000X0*%
G04 APERTURE END LIST*
D10*
X212000000Y-171467500D03*
X212000000Y-170332500D03*
D11*
X217594000Y-102768400D03*
X218394000Y-102768400D03*
D12*
X219544000Y-102768400D03*
X220544000Y-102768400D03*
X221044000Y-102768400D03*
X222044000Y-102768400D03*
D11*
X223194000Y-102768400D03*
X223994000Y-102768400D03*
X223994000Y-102768400D03*
X223194000Y-102768400D03*
D12*
X222544000Y-102768400D03*
X221544000Y-102768400D03*
X220044000Y-102768400D03*
X219044000Y-102768400D03*
D11*
X218394000Y-102768400D03*
X217594000Y-102768400D03*
D13*
X226094000Y-101048400D03*
D14*
X226094000Y-97410900D03*
D15*
X215494000Y-101098400D03*
D16*
X215444000Y-97410900D03*
D10*
X192400000Y-106367500D03*
X192400000Y-105232500D03*
D11*
X217594000Y-172968400D03*
X218394000Y-172968400D03*
D12*
X219544000Y-172968400D03*
X220544000Y-172968400D03*
X221044000Y-172968400D03*
X222044000Y-172968400D03*
D11*
X223194000Y-172968400D03*
X223994000Y-172968400D03*
X223994000Y-172968400D03*
X223194000Y-172968400D03*
D12*
X222544000Y-172968400D03*
X221544000Y-172968400D03*
X220044000Y-172968400D03*
X219044000Y-172968400D03*
D11*
X218394000Y-172968400D03*
X217594000Y-172968400D03*
D13*
X226094000Y-171248400D03*
D14*
X226094000Y-167610900D03*
D15*
X215494000Y-171298400D03*
D16*
X215444000Y-167610900D03*
D10*
X214800000Y-176567500D03*
X214800000Y-175432500D03*
D17*
X211100000Y-130065000D03*
X211100000Y-129200000D03*
D10*
X240100000Y-129767500D03*
X240100000Y-128632500D03*
D18*
X212500000Y-129837500D03*
X212500000Y-127762500D03*
X212500000Y-106437500D03*
X212500000Y-104362500D03*
X235900000Y-106437500D03*
X235900000Y-104362500D03*
D11*
X240994000Y-102768400D03*
X241794000Y-102768400D03*
D12*
X242944000Y-102768400D03*
X243944000Y-102768400D03*
X244444000Y-102768400D03*
X245444000Y-102768400D03*
D11*
X246594000Y-102768400D03*
X247394000Y-102768400D03*
X247394000Y-102768400D03*
X246594000Y-102768400D03*
D12*
X245944000Y-102768400D03*
X244944000Y-102768400D03*
X243444000Y-102768400D03*
X242444000Y-102768400D03*
D11*
X241794000Y-102768400D03*
X240994000Y-102768400D03*
D13*
X249494000Y-101048400D03*
D14*
X249494000Y-97410900D03*
D15*
X238894000Y-101098400D03*
D16*
X238844000Y-97410900D03*
D10*
X212000000Y-148067500D03*
X212000000Y-146932500D03*
D17*
X187700000Y-176865000D03*
X187700000Y-176000000D03*
X187700000Y-153465000D03*
X187700000Y-152600000D03*
D10*
X211000000Y-101267500D03*
X211000000Y-100132500D03*
D11*
X170794000Y-126168400D03*
X171594000Y-126168400D03*
D12*
X172744000Y-126168400D03*
X173744000Y-126168400D03*
X174244000Y-126168400D03*
X175244000Y-126168400D03*
D11*
X176394000Y-126168400D03*
X177194000Y-126168400D03*
X177194000Y-126168400D03*
X176394000Y-126168400D03*
D12*
X175744000Y-126168400D03*
X174744000Y-126168400D03*
X173244000Y-126168400D03*
X172244000Y-126168400D03*
D11*
X171594000Y-126168400D03*
X170794000Y-126168400D03*
D13*
X179294000Y-124448400D03*
D14*
X179294000Y-120810900D03*
D15*
X168694000Y-124498400D03*
D16*
X168644000Y-120810900D03*
D10*
X188600000Y-101267500D03*
X188600000Y-100132500D03*
X234400000Y-171467500D03*
X234400000Y-170332500D03*
D17*
X211100000Y-175032500D03*
X211100000Y-174167500D03*
D10*
X215800000Y-153167500D03*
X215800000Y-152032500D03*
D19*
X223600000Y-152900000D03*
X223600000Y-153850000D03*
X223600000Y-154800000D03*
X225875000Y-154800000D03*
X225875000Y-153850000D03*
X225875000Y-152900000D03*
D18*
X235900000Y-129837500D03*
X235900000Y-127762500D03*
D10*
X193300000Y-129767500D03*
X193300000Y-128632500D03*
D17*
X211100000Y-151632500D03*
X211100000Y-150767500D03*
D18*
X165700000Y-153237500D03*
X165700000Y-151162500D03*
D19*
X223600000Y-106100000D03*
X223600000Y-107050000D03*
X223600000Y-108000000D03*
X225875000Y-108000000D03*
X225875000Y-107050000D03*
X225875000Y-106100000D03*
D10*
X213000000Y-171467500D03*
X213000000Y-170332500D03*
D20*
X211232500Y-179200000D03*
X212367500Y-179200000D03*
D11*
X240994000Y-172968400D03*
X241794000Y-172968400D03*
D12*
X242944000Y-172968400D03*
X243944000Y-172968400D03*
X244444000Y-172968400D03*
X245444000Y-172968400D03*
D11*
X246594000Y-172968400D03*
X247394000Y-172968400D03*
X247394000Y-172968400D03*
X246594000Y-172968400D03*
D12*
X245944000Y-172968400D03*
X244944000Y-172968400D03*
X243444000Y-172968400D03*
X242444000Y-172968400D03*
D11*
X241794000Y-172968400D03*
X240994000Y-172968400D03*
D13*
X249494000Y-171248400D03*
D14*
X249494000Y-167610900D03*
D15*
X238894000Y-171298400D03*
D16*
X238844000Y-167610900D03*
D10*
X235400000Y-124667500D03*
X235400000Y-123532500D03*
D17*
X164300000Y-151632500D03*
X164300000Y-150767500D03*
D10*
X187600000Y-101267500D03*
X187600000Y-100132500D03*
D11*
X194194000Y-172968400D03*
X194994000Y-172968400D03*
D12*
X196144000Y-172968400D03*
X197144000Y-172968400D03*
X197644000Y-172968400D03*
X198644000Y-172968400D03*
D11*
X199794000Y-172968400D03*
X200594000Y-172968400D03*
X200594000Y-172968400D03*
X199794000Y-172968400D03*
D12*
X199144000Y-172968400D03*
X198144000Y-172968400D03*
X196644000Y-172968400D03*
X195644000Y-172968400D03*
D11*
X194994000Y-172968400D03*
X194194000Y-172968400D03*
D13*
X202694000Y-171248400D03*
D14*
X202694000Y-167610900D03*
D15*
X192094000Y-171298400D03*
D16*
X192044000Y-167610900D03*
D10*
X215800000Y-129767500D03*
X215800000Y-128632500D03*
D20*
X164432500Y-179200000D03*
X165567500Y-179200000D03*
D19*
X200200000Y-152900000D03*
X200200000Y-153850000D03*
X200200000Y-154800000D03*
X202475000Y-154800000D03*
X202475000Y-153850000D03*
X202475000Y-152900000D03*
D18*
X212500000Y-176637500D03*
X212500000Y-174562500D03*
D17*
X211100000Y-106665000D03*
X211100000Y-105800000D03*
D10*
X189600000Y-171467500D03*
X189600000Y-170332500D03*
D18*
X235900000Y-153237500D03*
X235900000Y-151162500D03*
X189100000Y-106437500D03*
X189100000Y-104362500D03*
D10*
X187600000Y-124667500D03*
X187600000Y-123532500D03*
X192400000Y-153167500D03*
X192400000Y-152032500D03*
X238200000Y-129767500D03*
X238200000Y-128632500D03*
X214800000Y-129767500D03*
X214800000Y-128632500D03*
X189600000Y-124667500D03*
X189600000Y-123532500D03*
D18*
X165700000Y-129837500D03*
X165700000Y-127762500D03*
D10*
X212000000Y-124667500D03*
X212000000Y-123532500D03*
D17*
X234500000Y-104832500D03*
X234500000Y-103967500D03*
X211100000Y-176865000D03*
X211100000Y-176000000D03*
D11*
X217594000Y-126168400D03*
X218394000Y-126168400D03*
D12*
X219544000Y-126168400D03*
X220544000Y-126168400D03*
X221044000Y-126168400D03*
X222044000Y-126168400D03*
D11*
X223194000Y-126168400D03*
X223994000Y-126168400D03*
X223994000Y-126168400D03*
X223194000Y-126168400D03*
D12*
X222544000Y-126168400D03*
X221544000Y-126168400D03*
X220044000Y-126168400D03*
X219044000Y-126168400D03*
D11*
X218394000Y-126168400D03*
X217594000Y-126168400D03*
D13*
X226094000Y-124448400D03*
D14*
X226094000Y-120810900D03*
D15*
X215494000Y-124498400D03*
D16*
X215444000Y-120810900D03*
D10*
X191400000Y-129767500D03*
X191400000Y-128632500D03*
X192400000Y-176567500D03*
X192400000Y-175432500D03*
D20*
X234632500Y-155800000D03*
X235767500Y-155800000D03*
D18*
X165700000Y-106437500D03*
X165700000Y-104362500D03*
D10*
X165200000Y-124667500D03*
X165200000Y-123532500D03*
D17*
X164300000Y-104832500D03*
X164300000Y-103967500D03*
D20*
X164432500Y-109000000D03*
X165567500Y-109000000D03*
D17*
X164300000Y-175032500D03*
X164300000Y-174167500D03*
D10*
X193300000Y-153167500D03*
X193300000Y-152032500D03*
D17*
X234500000Y-175032500D03*
X234500000Y-174167500D03*
D10*
X239200000Y-106367500D03*
X239200000Y-105232500D03*
X187600000Y-171467500D03*
X187600000Y-170332500D03*
X169000000Y-153167500D03*
X169000000Y-152032500D03*
X240100000Y-153167500D03*
X240100000Y-152032500D03*
X169000000Y-129767500D03*
X169000000Y-128632500D03*
X214800000Y-153167500D03*
X214800000Y-152032500D03*
X169000000Y-176567500D03*
X169000000Y-175432500D03*
X239200000Y-153167500D03*
X239200000Y-152032500D03*
X169000000Y-106367500D03*
X169000000Y-105232500D03*
X164200000Y-171467500D03*
X164200000Y-170332500D03*
D20*
X187832500Y-132400000D03*
X188967500Y-132400000D03*
D10*
X238200000Y-176567500D03*
X238200000Y-175432500D03*
X240100000Y-106367500D03*
X240100000Y-105232500D03*
D18*
X189100000Y-176637500D03*
X189100000Y-174562500D03*
D19*
X247000000Y-106100000D03*
X247000000Y-107050000D03*
X247000000Y-108000000D03*
X249275000Y-108000000D03*
X249275000Y-107050000D03*
X249275000Y-106100000D03*
X176800000Y-176300000D03*
X176800000Y-177250000D03*
X176800000Y-178200000D03*
X179075000Y-178200000D03*
X179075000Y-177250000D03*
X179075000Y-176300000D03*
D17*
X211100000Y-104832500D03*
X211100000Y-103967500D03*
D19*
X200200000Y-176300000D03*
X200200000Y-177250000D03*
X200200000Y-178200000D03*
X202475000Y-178200000D03*
X202475000Y-177250000D03*
X202475000Y-176300000D03*
D10*
X235400000Y-171467500D03*
X235400000Y-170332500D03*
X212000000Y-101267500D03*
X212000000Y-100132500D03*
X168000000Y-106367500D03*
X168000000Y-105232500D03*
X191400000Y-176567500D03*
X191400000Y-175432500D03*
X239200000Y-176567500D03*
X239200000Y-175432500D03*
X168000000Y-176567500D03*
X168000000Y-175432500D03*
D20*
X234632500Y-132400000D03*
X235767500Y-132400000D03*
D18*
X189100000Y-129837500D03*
X189100000Y-127762500D03*
D10*
X165200000Y-101267500D03*
X165200000Y-100132500D03*
D20*
X234632500Y-179200000D03*
X235767500Y-179200000D03*
D10*
X234400000Y-124667500D03*
X234400000Y-123532500D03*
X188600000Y-171467500D03*
X188600000Y-170332500D03*
D18*
X212500000Y-153237500D03*
X212500000Y-151162500D03*
D10*
X166200000Y-171467500D03*
X166200000Y-170332500D03*
D11*
X217594000Y-149568400D03*
X218394000Y-149568400D03*
D12*
X219544000Y-149568400D03*
X220544000Y-149568400D03*
X221044000Y-149568400D03*
X222044000Y-149568400D03*
D11*
X223194000Y-149568400D03*
X223994000Y-149568400D03*
X223994000Y-149568400D03*
X223194000Y-149568400D03*
D12*
X222544000Y-149568400D03*
X221544000Y-149568400D03*
X220044000Y-149568400D03*
X219044000Y-149568400D03*
D11*
X218394000Y-149568400D03*
X217594000Y-149568400D03*
D13*
X226094000Y-147848400D03*
D14*
X226094000Y-144210900D03*
D15*
X215494000Y-147898400D03*
D16*
X215444000Y-144210900D03*
D10*
X164200000Y-101267500D03*
X164200000Y-100132500D03*
X165200000Y-171467500D03*
X165200000Y-170332500D03*
X211000000Y-148067500D03*
X211000000Y-146932500D03*
D19*
X200200000Y-106100000D03*
X200200000Y-107050000D03*
X200200000Y-108000000D03*
X202475000Y-108000000D03*
X202475000Y-107050000D03*
X202475000Y-106100000D03*
D11*
X194194000Y-149568400D03*
X194994000Y-149568400D03*
D12*
X196144000Y-149568400D03*
X197144000Y-149568400D03*
X197644000Y-149568400D03*
X198644000Y-149568400D03*
D11*
X199794000Y-149568400D03*
X200594000Y-149568400D03*
X200594000Y-149568400D03*
X199794000Y-149568400D03*
D12*
X199144000Y-149568400D03*
X198144000Y-149568400D03*
X196644000Y-149568400D03*
X195644000Y-149568400D03*
D11*
X194994000Y-149568400D03*
X194194000Y-149568400D03*
D13*
X202694000Y-147848400D03*
D14*
X202694000Y-144210900D03*
D15*
X192094000Y-147898400D03*
D16*
X192044000Y-144210900D03*
D19*
X247000000Y-152900000D03*
X247000000Y-153850000D03*
X247000000Y-154800000D03*
X249275000Y-154800000D03*
X249275000Y-153850000D03*
X249275000Y-152900000D03*
D10*
X166200000Y-124667500D03*
X166200000Y-123532500D03*
D18*
X165700000Y-176637500D03*
X165700000Y-174562500D03*
D10*
X235400000Y-148067500D03*
X235400000Y-146932500D03*
D17*
X234500000Y-128232500D03*
X234500000Y-127367500D03*
X187700000Y-151632500D03*
X187700000Y-150767500D03*
D20*
X211232500Y-109000000D03*
X212367500Y-109000000D03*
D11*
X194194000Y-126168400D03*
X194994000Y-126168400D03*
D12*
X196144000Y-126168400D03*
X197144000Y-126168400D03*
X197644000Y-126168400D03*
X198644000Y-126168400D03*
D11*
X199794000Y-126168400D03*
X200594000Y-126168400D03*
X200594000Y-126168400D03*
X199794000Y-126168400D03*
D12*
X199144000Y-126168400D03*
X198144000Y-126168400D03*
X196644000Y-126168400D03*
X195644000Y-126168400D03*
D11*
X194994000Y-126168400D03*
X194194000Y-126168400D03*
D13*
X202694000Y-124448400D03*
D14*
X202694000Y-120810900D03*
D15*
X192094000Y-124498400D03*
D16*
X192044000Y-120810900D03*
D10*
X166200000Y-148067500D03*
X166200000Y-146932500D03*
X215800000Y-176567500D03*
X215800000Y-175432500D03*
D17*
X234500000Y-151632500D03*
X234500000Y-150767500D03*
D19*
X247000000Y-176300000D03*
X247000000Y-177250000D03*
X247000000Y-178200000D03*
X249275000Y-178200000D03*
X249275000Y-177250000D03*
X249275000Y-176300000D03*
D20*
X211232500Y-132400000D03*
X212367500Y-132400000D03*
D10*
X164200000Y-148067500D03*
X164200000Y-146932500D03*
D11*
X170794000Y-102768400D03*
X171594000Y-102768400D03*
D12*
X172744000Y-102768400D03*
X173744000Y-102768400D03*
X174244000Y-102768400D03*
X175244000Y-102768400D03*
D11*
X176394000Y-102768400D03*
X177194000Y-102768400D03*
X177194000Y-102768400D03*
X176394000Y-102768400D03*
D12*
X175744000Y-102768400D03*
X174744000Y-102768400D03*
X173244000Y-102768400D03*
X172244000Y-102768400D03*
D11*
X171594000Y-102768400D03*
X170794000Y-102768400D03*
D13*
X179294000Y-101048400D03*
D14*
X179294000Y-97410900D03*
D15*
X168694000Y-101098400D03*
D16*
X168644000Y-97410900D03*
D11*
X240994000Y-149568400D03*
X241794000Y-149568400D03*
D12*
X242944000Y-149568400D03*
X243944000Y-149568400D03*
X244444000Y-149568400D03*
X245444000Y-149568400D03*
D11*
X246594000Y-149568400D03*
X247394000Y-149568400D03*
X247394000Y-149568400D03*
X246594000Y-149568400D03*
D12*
X245944000Y-149568400D03*
X244944000Y-149568400D03*
X243444000Y-149568400D03*
X242444000Y-149568400D03*
D11*
X241794000Y-149568400D03*
X240994000Y-149568400D03*
D13*
X249494000Y-147848400D03*
D14*
X249494000Y-144210900D03*
D15*
X238894000Y-147898400D03*
D16*
X238844000Y-144210900D03*
D10*
X169900000Y-153167500D03*
X169900000Y-152032500D03*
X213000000Y-148067500D03*
X213000000Y-146932500D03*
D17*
X211100000Y-128232500D03*
X211100000Y-127367500D03*
D10*
X236400000Y-101267500D03*
X236400000Y-100132500D03*
X164200000Y-124667500D03*
X164200000Y-123532500D03*
D17*
X234500000Y-176865000D03*
X234500000Y-176000000D03*
D10*
X169900000Y-106367500D03*
X169900000Y-105232500D03*
D17*
X164300000Y-130065000D03*
X164300000Y-129200000D03*
X211100000Y-153465000D03*
X211100000Y-152600000D03*
D20*
X164432500Y-132400000D03*
X165567500Y-132400000D03*
D19*
X176800000Y-152900000D03*
X176800000Y-153850000D03*
X176800000Y-154800000D03*
X179075000Y-154800000D03*
X179075000Y-153850000D03*
X179075000Y-152900000D03*
D20*
X164432500Y-155800000D03*
X165567500Y-155800000D03*
D10*
X235400000Y-101267500D03*
X235400000Y-100132500D03*
X193300000Y-106367500D03*
X193300000Y-105232500D03*
X236400000Y-124667500D03*
X236400000Y-123532500D03*
D17*
X164300000Y-176865000D03*
X164300000Y-176000000D03*
D11*
X240994000Y-126168400D03*
X241794000Y-126168400D03*
D12*
X242944000Y-126168400D03*
X243944000Y-126168400D03*
X244444000Y-126168400D03*
X245444000Y-126168400D03*
D11*
X246594000Y-126168400D03*
X247394000Y-126168400D03*
X247394000Y-126168400D03*
X246594000Y-126168400D03*
D12*
X245944000Y-126168400D03*
X244944000Y-126168400D03*
X243444000Y-126168400D03*
X242444000Y-126168400D03*
D11*
X241794000Y-126168400D03*
X240994000Y-126168400D03*
D13*
X249494000Y-124448400D03*
D14*
X249494000Y-120810900D03*
D15*
X238894000Y-124498400D03*
D16*
X238844000Y-120810900D03*
D17*
X187700000Y-130065000D03*
X187700000Y-129200000D03*
D11*
X194194000Y-102768400D03*
X194994000Y-102768400D03*
D12*
X196144000Y-102768400D03*
X197144000Y-102768400D03*
X197644000Y-102768400D03*
X198644000Y-102768400D03*
D11*
X199794000Y-102768400D03*
X200594000Y-102768400D03*
X200594000Y-102768400D03*
X199794000Y-102768400D03*
D12*
X199144000Y-102768400D03*
X198144000Y-102768400D03*
X196644000Y-102768400D03*
X195644000Y-102768400D03*
D11*
X194994000Y-102768400D03*
X194194000Y-102768400D03*
D13*
X202694000Y-101048400D03*
D14*
X202694000Y-97410900D03*
D15*
X192094000Y-101098400D03*
D16*
X192044000Y-97410900D03*
D17*
X164300000Y-128232500D03*
X164300000Y-127367500D03*
D10*
X169900000Y-129767500D03*
X169900000Y-128632500D03*
X169900000Y-176567500D03*
X169900000Y-175432500D03*
X193300000Y-176567500D03*
X193300000Y-175432500D03*
X189600000Y-101267500D03*
X189600000Y-100132500D03*
X236400000Y-148067500D03*
X236400000Y-146932500D03*
D17*
X234500000Y-130065000D03*
X234500000Y-129200000D03*
D10*
X238200000Y-106367500D03*
X238200000Y-105232500D03*
X188600000Y-124667500D03*
X188600000Y-123532500D03*
D17*
X187700000Y-128232500D03*
X187700000Y-127367500D03*
D10*
X188600000Y-148067500D03*
X188600000Y-146932500D03*
D18*
X189100000Y-153237500D03*
X189100000Y-151162500D03*
D17*
X187700000Y-175032500D03*
X187700000Y-174167500D03*
D10*
X187600000Y-148067500D03*
X187600000Y-146932500D03*
D20*
X187832500Y-155800000D03*
X188967500Y-155800000D03*
D10*
X191400000Y-106367500D03*
X191400000Y-105232500D03*
D11*
X170794000Y-172968400D03*
X171594000Y-172968400D03*
D12*
X172744000Y-172968400D03*
X173744000Y-172968400D03*
X174244000Y-172968400D03*
X175244000Y-172968400D03*
D11*
X176394000Y-172968400D03*
X177194000Y-172968400D03*
X177194000Y-172968400D03*
X176394000Y-172968400D03*
D12*
X175744000Y-172968400D03*
X174744000Y-172968400D03*
X173244000Y-172968400D03*
X172244000Y-172968400D03*
D11*
X171594000Y-172968400D03*
X170794000Y-172968400D03*
D13*
X179294000Y-171248400D03*
D14*
X179294000Y-167610900D03*
D15*
X168694000Y-171298400D03*
D16*
X168644000Y-167610900D03*
D10*
X234400000Y-101267500D03*
X234400000Y-100132500D03*
D19*
X247000000Y-129500000D03*
X247000000Y-130450000D03*
X247000000Y-131400000D03*
X249275000Y-131400000D03*
X249275000Y-130450000D03*
X249275000Y-129500000D03*
D20*
X211232500Y-155800000D03*
X212367500Y-155800000D03*
D10*
X166200000Y-101267500D03*
X166200000Y-100132500D03*
D19*
X223600000Y-129500000D03*
X223600000Y-130450000D03*
X223600000Y-131400000D03*
X225875000Y-131400000D03*
X225875000Y-130450000D03*
X225875000Y-129500000D03*
D10*
X216700000Y-153167500D03*
X216700000Y-152032500D03*
X238200000Y-153167500D03*
X238200000Y-152032500D03*
D19*
X200200000Y-129500000D03*
X200200000Y-130450000D03*
X200200000Y-131400000D03*
X202475000Y-131400000D03*
X202475000Y-130450000D03*
X202475000Y-129500000D03*
D10*
X211000000Y-171467500D03*
X211000000Y-170332500D03*
X214800000Y-106367500D03*
X214800000Y-105232500D03*
X216700000Y-129767500D03*
X216700000Y-128632500D03*
D19*
X223600000Y-176300000D03*
X223600000Y-177250000D03*
X223600000Y-178200000D03*
X225875000Y-178200000D03*
X225875000Y-177250000D03*
X225875000Y-176300000D03*
D17*
X164300000Y-106665000D03*
X164300000Y-105800000D03*
D10*
X215800000Y-106367500D03*
X215800000Y-105232500D03*
D17*
X187700000Y-104832500D03*
X187700000Y-103967500D03*
D10*
X236400000Y-171467500D03*
X236400000Y-170332500D03*
X216700000Y-176567500D03*
X216700000Y-175432500D03*
X240100000Y-176567500D03*
X240100000Y-175432500D03*
X168000000Y-153167500D03*
X168000000Y-152032500D03*
X191400000Y-153167500D03*
X191400000Y-152032500D03*
X213000000Y-101267500D03*
X213000000Y-100132500D03*
X189600000Y-148067500D03*
X189600000Y-146932500D03*
D20*
X234632500Y-109000000D03*
X235767500Y-109000000D03*
D17*
X234500000Y-153465000D03*
X234500000Y-152600000D03*
D10*
X192400000Y-129767500D03*
X192400000Y-128632500D03*
D17*
X164300000Y-153465000D03*
X164300000Y-152600000D03*
D11*
X170794000Y-149568400D03*
X171594000Y-149568400D03*
D12*
X172744000Y-149568400D03*
X173744000Y-149568400D03*
X174244000Y-149568400D03*
X175244000Y-149568400D03*
D11*
X176394000Y-149568400D03*
X177194000Y-149568400D03*
X177194000Y-149568400D03*
X176394000Y-149568400D03*
D12*
X175744000Y-149568400D03*
X174744000Y-149568400D03*
X173244000Y-149568400D03*
X172244000Y-149568400D03*
D11*
X171594000Y-149568400D03*
X170794000Y-149568400D03*
D13*
X179294000Y-147848400D03*
D14*
X179294000Y-144210900D03*
D15*
X168694000Y-147898400D03*
D16*
X168644000Y-144210900D03*
D20*
X187832500Y-179200000D03*
X188967500Y-179200000D03*
D19*
X176800000Y-129500000D03*
X176800000Y-130450000D03*
X176800000Y-131400000D03*
X179075000Y-131400000D03*
X179075000Y-130450000D03*
X179075000Y-129500000D03*
D10*
X168000000Y-129767500D03*
X168000000Y-128632500D03*
D17*
X234500000Y-106665000D03*
X234500000Y-105800000D03*
D10*
X165200000Y-148067500D03*
X165200000Y-146932500D03*
D19*
X176800000Y-106100000D03*
X176800000Y-107050000D03*
X176800000Y-108000000D03*
X179075000Y-108000000D03*
X179075000Y-107050000D03*
X179075000Y-106100000D03*
D20*
X187832500Y-109000000D03*
X188967500Y-109000000D03*
D10*
X239200000Y-129767500D03*
X239200000Y-128632500D03*
D17*
X187700000Y-106665000D03*
X187700000Y-105800000D03*
D18*
X235900000Y-176637500D03*
X235900000Y-174562500D03*
D10*
X216700000Y-106367500D03*
X216700000Y-105232500D03*
X211000000Y-124667500D03*
X211000000Y-123532500D03*
X213000000Y-124667500D03*
X213000000Y-123532500D03*
X234400000Y-148067500D03*
X234400000Y-146932500D03*
M02*
