G04 #@! TF.GenerationSoftware,KiCad,Pcbnew,8.0.6*
G04 #@! TF.CreationDate,2024-11-12T16:38:53+01:00*
G04 #@! TF.ProjectId,USB-C_Adapter - nutzen,5553422d-435f-4416-9461-70746572202d,rev?*
G04 #@! TF.SameCoordinates,Original*
G04 #@! TF.FileFunction,Soldermask,Bot*
G04 #@! TF.FilePolarity,Negative*
%FSLAX46Y46*%
G04 Gerber Fmt 4.6, Leading zero omitted, Abs format (unit mm)*
G04 Created by KiCad (PCBNEW 8.0.6) date 2024-11-12 16:38:53*
%MOMM*%
%LPD*%
G01*
G04 APERTURE LIST*
G04 Aperture macros list*
%AMRoundRect*
0 Rectangle with rounded corners*
0 $1 Rounding radius*
0 $2 $3 $4 $5 $6 $7 $8 $9 X,Y pos of 4 corners*
0 Add a 4 corners polygon primitive as box body*
4,1,4,$2,$3,$4,$5,$6,$7,$8,$9,$2,$3,0*
0 Add four circle primitives for the rounded corners*
1,1,$1+$1,$2,$3*
1,1,$1+$1,$4,$5*
1,1,$1+$1,$6,$7*
1,1,$1+$1,$8,$9*
0 Add four rect primitives between the rounded corners*
20,1,$1+$1,$2,$3,$4,$5,0*
20,1,$1+$1,$4,$5,$6,$7,0*
20,1,$1+$1,$6,$7,$8,$9,0*
20,1,$1+$1,$8,$9,$2,$3,0*%
G04 Aperture macros list end*
%ADD10C,2.200000*%
%ADD11RoundRect,0.250000X-0.350000X-0.625000X0.350000X-0.625000X0.350000X0.625000X-0.350000X0.625000X0*%
%ADD12O,1.200000X1.750000*%
%ADD13RoundRect,0.120000X-0.430000X-0.180000X0.430000X-0.180000X0.430000X0.180000X-0.430000X0.180000X0*%
G04 APERTURE END LIST*
D10*
X229984800Y-120478800D03*
D11*
X170900000Y-157800000D03*
D12*
X172900000Y-157800000D03*
X174900000Y-157800000D03*
X176900000Y-157800000D03*
D10*
X164889200Y-143878800D03*
X188289200Y-138506400D03*
D11*
X241100000Y-157800000D03*
D12*
X243100000Y-157800000D03*
X245100000Y-157800000D03*
X247100000Y-157800000D03*
D10*
X164889200Y-115106400D03*
X229984800Y-143878800D03*
X164889200Y-167278800D03*
X206584800Y-97078800D03*
X253384800Y-138506400D03*
X253384800Y-97078800D03*
X206584800Y-185306400D03*
X183184800Y-167278800D03*
X253384800Y-120478800D03*
X235089200Y-161906400D03*
X206584800Y-143878800D03*
X253384800Y-167278800D03*
X183184800Y-120478800D03*
X229984800Y-115106400D03*
X229984800Y-97078800D03*
D11*
X194300000Y-134400000D03*
D12*
X196300000Y-134400000D03*
X198300000Y-134400000D03*
X200300000Y-134400000D03*
D10*
X183184800Y-161906400D03*
X188289200Y-97078800D03*
D11*
X217700000Y-181200000D03*
D12*
X219700000Y-181200000D03*
X221700000Y-181200000D03*
X223700000Y-181200000D03*
D11*
X217700000Y-157800000D03*
D12*
X219700000Y-157800000D03*
X221700000Y-157800000D03*
X223700000Y-157800000D03*
D10*
X188289200Y-120478800D03*
X235089200Y-167278800D03*
X229984800Y-185306400D03*
X235089200Y-115106400D03*
X183184800Y-138506400D03*
X253384800Y-115106400D03*
X206584800Y-167278800D03*
X164889200Y-185306400D03*
X211689200Y-167278800D03*
X235089200Y-120478800D03*
X229984800Y-138506400D03*
X229984800Y-161906400D03*
X253384800Y-161906400D03*
D11*
X194300000Y-157800000D03*
D12*
X196300000Y-157800000D03*
X198300000Y-157800000D03*
X200300000Y-157800000D03*
D11*
X194300000Y-111000000D03*
D12*
X196300000Y-111000000D03*
X198300000Y-111000000D03*
X200300000Y-111000000D03*
D10*
X211689200Y-120478800D03*
X183184800Y-185306400D03*
X188289200Y-143878800D03*
D11*
X241100000Y-111000000D03*
D12*
X243100000Y-111000000D03*
X245100000Y-111000000D03*
X247100000Y-111000000D03*
D11*
X170900000Y-134400000D03*
D12*
X172900000Y-134400000D03*
X174900000Y-134400000D03*
X176900000Y-134400000D03*
D10*
X188289200Y-167278800D03*
X206584800Y-115106400D03*
X235089200Y-143878800D03*
D11*
X241100000Y-134400000D03*
D12*
X243100000Y-134400000D03*
X245100000Y-134400000D03*
X247100000Y-134400000D03*
D11*
X241100000Y-181200000D03*
D12*
X243100000Y-181200000D03*
X245100000Y-181200000D03*
X247100000Y-181200000D03*
D10*
X235089200Y-97078800D03*
X183184800Y-97078800D03*
X211689200Y-161906400D03*
X211689200Y-185306400D03*
X211689200Y-115106400D03*
X206584800Y-120478800D03*
X206584800Y-138506400D03*
X206584800Y-161906400D03*
X211689200Y-143878800D03*
X183184800Y-143878800D03*
X229984800Y-167278800D03*
D11*
X217700000Y-111000000D03*
D12*
X219700000Y-111000000D03*
X221700000Y-111000000D03*
X223700000Y-111000000D03*
D10*
X183184800Y-115106400D03*
X188289200Y-161906400D03*
D11*
X194300000Y-181200000D03*
D12*
X196300000Y-181200000D03*
X198300000Y-181200000D03*
X200300000Y-181200000D03*
D10*
X235089200Y-185306400D03*
X253384800Y-185306400D03*
X164889200Y-120478800D03*
X164889200Y-97078800D03*
D11*
X217700000Y-134400000D03*
D12*
X219700000Y-134400000D03*
X221700000Y-134400000D03*
X223700000Y-134400000D03*
D10*
X188289200Y-115106400D03*
D11*
X170900000Y-111000000D03*
D12*
X172900000Y-111000000D03*
X174900000Y-111000000D03*
X176900000Y-111000000D03*
D10*
X235089200Y-138506400D03*
X164889200Y-161906400D03*
X188289200Y-185306400D03*
X211689200Y-97078800D03*
X253384800Y-143878800D03*
X211689200Y-138506400D03*
D11*
X170900000Y-181200000D03*
D12*
X172900000Y-181200000D03*
X174900000Y-181200000D03*
X176900000Y-181200000D03*
D10*
X164889200Y-138506400D03*
D13*
X176587500Y-154350000D03*
X179287500Y-154350000D03*
X179287500Y-153350000D03*
X176587500Y-153350000D03*
X199987500Y-130950000D03*
X202687500Y-130950000D03*
X202687500Y-129950000D03*
X199987500Y-129950000D03*
X223387500Y-177750000D03*
X226087500Y-177750000D03*
X226087500Y-176750000D03*
X223387500Y-176750000D03*
X223387500Y-130950000D03*
X226087500Y-130950000D03*
X226087500Y-129950000D03*
X223387500Y-129950000D03*
X223387500Y-107550000D03*
X226087500Y-107550000D03*
X226087500Y-106550000D03*
X223387500Y-106550000D03*
X246787500Y-130950000D03*
X249487500Y-130950000D03*
X249487500Y-129950000D03*
X246787500Y-129950000D03*
X176587500Y-107550000D03*
X179287500Y-107550000D03*
X179287500Y-106550000D03*
X176587500Y-106550000D03*
X246787500Y-107550000D03*
X249487500Y-107550000D03*
X249487500Y-106550000D03*
X246787500Y-106550000D03*
X176587500Y-130950000D03*
X179287500Y-130950000D03*
X179287500Y-129950000D03*
X176587500Y-129950000D03*
X246787500Y-177750000D03*
X249487500Y-177750000D03*
X249487500Y-176750000D03*
X246787500Y-176750000D03*
X223387500Y-154350000D03*
X226087500Y-154350000D03*
X226087500Y-153350000D03*
X223387500Y-153350000D03*
X199987500Y-107550000D03*
X202687500Y-107550000D03*
X202687500Y-106550000D03*
X199987500Y-106550000D03*
X246787500Y-154350000D03*
X249487500Y-154350000D03*
X249487500Y-153350000D03*
X246787500Y-153350000D03*
X199987500Y-177750000D03*
X202687500Y-177750000D03*
X202687500Y-176750000D03*
X199987500Y-176750000D03*
X199987500Y-154350000D03*
X202687500Y-154350000D03*
X202687500Y-153350000D03*
X199987500Y-153350000D03*
X176587500Y-177750000D03*
X179287500Y-177750000D03*
X179287500Y-176750000D03*
X176587500Y-176750000D03*
M02*
