G04 #@! TF.GenerationSoftware,KiCad,Pcbnew,8.0.6*
G04 #@! TF.CreationDate,2024-11-12T16:38:53+01:00*
G04 #@! TF.ProjectId,USB-C_Adapter - nutzen,5553422d-435f-4416-9461-70746572202d,rev?*
G04 #@! TF.SameCoordinates,Original*
G04 #@! TF.FileFunction,Paste,Bot*
G04 #@! TF.FilePolarity,Positive*
%FSLAX46Y46*%
G04 Gerber Fmt 4.6, Leading zero omitted, Abs format (unit mm)*
G04 Created by KiCad (PCBNEW 8.0.6) date 2024-11-12 16:38:53*
%MOMM*%
%LPD*%
G01*
G04 APERTURE LIST*
G04 Aperture macros list*
%AMRoundRect*
0 Rectangle with rounded corners*
0 $1 Rounding radius*
0 $2 $3 $4 $5 $6 $7 $8 $9 X,Y pos of 4 corners*
0 Add a 4 corners polygon primitive as box body*
4,1,4,$2,$3,$4,$5,$6,$7,$8,$9,$2,$3,0*
0 Add four circle primitives for the rounded corners*
1,1,$1+$1,$2,$3*
1,1,$1+$1,$4,$5*
1,1,$1+$1,$6,$7*
1,1,$1+$1,$8,$9*
0 Add four rect primitives between the rounded corners*
20,1,$1+$1,$2,$3,$4,$5,0*
20,1,$1+$1,$4,$5,$6,$7,0*
20,1,$1+$1,$6,$7,$8,$9,0*
20,1,$1+$1,$8,$9,$2,$3,0*%
G04 Aperture macros list end*
%ADD10RoundRect,0.120000X-0.430000X-0.180000X0.430000X-0.180000X0.430000X0.180000X-0.430000X0.180000X0*%
G04 APERTURE END LIST*
D10*
X176587500Y-154350000D03*
X179287500Y-154350000D03*
X179287500Y-153350000D03*
X176587500Y-153350000D03*
X199987500Y-130950000D03*
X202687500Y-130950000D03*
X202687500Y-129950000D03*
X199987500Y-129950000D03*
X223387500Y-177750000D03*
X226087500Y-177750000D03*
X226087500Y-176750000D03*
X223387500Y-176750000D03*
X223387500Y-130950000D03*
X226087500Y-130950000D03*
X226087500Y-129950000D03*
X223387500Y-129950000D03*
X223387500Y-107550000D03*
X226087500Y-107550000D03*
X226087500Y-106550000D03*
X223387500Y-106550000D03*
X246787500Y-130950000D03*
X249487500Y-130950000D03*
X249487500Y-129950000D03*
X246787500Y-129950000D03*
X176587500Y-107550000D03*
X179287500Y-107550000D03*
X179287500Y-106550000D03*
X176587500Y-106550000D03*
X246787500Y-107550000D03*
X249487500Y-107550000D03*
X249487500Y-106550000D03*
X246787500Y-106550000D03*
X176587500Y-130950000D03*
X179287500Y-130950000D03*
X179287500Y-129950000D03*
X176587500Y-129950000D03*
X246787500Y-177750000D03*
X249487500Y-177750000D03*
X249487500Y-176750000D03*
X246787500Y-176750000D03*
X223387500Y-154350000D03*
X226087500Y-154350000D03*
X226087500Y-153350000D03*
X223387500Y-153350000D03*
X199987500Y-107550000D03*
X202687500Y-107550000D03*
X202687500Y-106550000D03*
X199987500Y-106550000D03*
X246787500Y-154350000D03*
X249487500Y-154350000D03*
X249487500Y-153350000D03*
X246787500Y-153350000D03*
X199987500Y-177750000D03*
X202687500Y-177750000D03*
X202687500Y-176750000D03*
X199987500Y-176750000D03*
X199987500Y-154350000D03*
X202687500Y-154350000D03*
X202687500Y-153350000D03*
X199987500Y-153350000D03*
X176587500Y-177750000D03*
X179287500Y-177750000D03*
X179287500Y-176750000D03*
X176587500Y-176750000D03*
M02*
