M48
; DRILL file {KiCad 8.0.6} date 2024-11-12T16:37:33+0100
; FORMAT={-:-/ absolute / metric / decimal}
; #@! TF.CreationDate,2024-11-12T16:37:33+01:00
; #@! TF.GenerationSoftware,Kicad,Pcbnew,8.0.6
; #@! TF.FileFunction,NonPlated,1,2,NPTH
FMAT,2
METRIC
; #@! TA.AperFunction,NonPlated,NPTH,ComponentDrill
T1C2.200
%
G90
G05
T1
X164.889Y-97.079
X164.889Y-115.106
X164.889Y-120.479
X164.889Y-138.506
X164.889Y-143.879
X164.889Y-161.906
X164.889Y-167.279
X164.889Y-185.306
X183.185Y-97.079
X183.185Y-115.106
X183.185Y-120.479
X183.185Y-138.506
X183.185Y-143.879
X183.185Y-161.906
X183.185Y-167.279
X183.185Y-185.306
X188.289Y-97.079
X188.289Y-115.106
X188.289Y-120.479
X188.289Y-138.506
X188.289Y-143.879
X188.289Y-161.906
X188.289Y-167.279
X188.289Y-185.306
X206.585Y-97.079
X206.585Y-115.106
X206.585Y-120.479
X206.585Y-138.506
X206.585Y-143.879
X206.585Y-161.906
X206.585Y-167.279
X206.585Y-185.306
X211.689Y-97.079
X211.689Y-115.106
X211.689Y-120.479
X211.689Y-138.506
X211.689Y-143.879
X211.689Y-161.906
X211.689Y-167.279
X211.689Y-185.306
X229.985Y-97.079
X229.985Y-115.106
X229.985Y-120.479
X229.985Y-138.506
X229.985Y-143.879
X229.985Y-161.906
X229.985Y-167.279
X229.985Y-185.306
X235.089Y-97.079
X235.089Y-115.106
X235.089Y-120.479
X235.089Y-138.506
X235.089Y-143.879
X235.089Y-161.906
X235.089Y-167.279
X235.089Y-185.306
X253.385Y-97.079
X253.385Y-115.106
X253.385Y-120.479
X253.385Y-138.506
X253.385Y-143.879
X253.385Y-161.906
X253.385Y-167.279
X253.385Y-185.306
M30
