%TF.GenerationSoftware,KiCad,Pcbnew,8.0.6*%
%TF.CreationDate,2024-11-12T16:37:34+01:00*%
%TF.ProjectId,USB-C_Adapter - nutzen,5553422d-435f-4416-9461-70746572202d,rev?*%
%TF.SameCoordinates,Original*%
%TF.FileFunction,Drillmap*%
%TF.FilePolarity,Positive*%
%FSLAX45Y45*%
G04 Gerber Fmt 4.5, Leading zero omitted, Abs format (unit mm)*
G04 Created by KiCad (PCBNEW 8.0.6) date 2024-11-12 16:37:34*
%MOMM*%
%LPD*%
G01*
G04 APERTURE LIST*
%ADD10C,0.050000*%
%ADD11C,0.200000*%
%ADD12C,0.220000*%
G04 APERTURE END LIST*
D10*
X22519400Y-11795590D02*
X22989400Y-11795590D01*
X18309400Y-14135590D02*
G75*
G02*
X18569400Y-14395590I0J-260000D01*
G01*
X20910400Y-18555590D02*
X20909400Y-16735590D01*
X20910400Y-16215590D02*
X20909400Y-14395590D01*
X20910400Y-13875590D02*
X20909400Y-12055590D01*
X23249400Y-14395590D02*
G75*
G02*
X23509400Y-14135590I260000J0D01*
G01*
X22519400Y-16475590D02*
X22989400Y-16475590D01*
X23250400Y-16215590D02*
G75*
G02*
X22990400Y-16475590I-260000J0D01*
G01*
X24859400Y-14135590D02*
X25329400Y-14135590D01*
X21170400Y-18815590D02*
G75*
G02*
X20910400Y-18555590I0J260000D01*
G01*
X23250400Y-16215590D02*
X23249400Y-14395590D01*
X23510400Y-14135590D02*
G75*
G02*
X23250400Y-13875590I0J260000D01*
G01*
X22990400Y-16475590D02*
X21170400Y-16475590D01*
X23250400Y-13875590D02*
X23249400Y-12055590D01*
X23249400Y-9715590D02*
G75*
G02*
X23509400Y-9455590I260000J0D01*
G01*
X20649400Y-16475590D02*
G75*
G02*
X20909400Y-16735590I0J-260000D01*
G01*
X18570400Y-13875590D02*
X18569400Y-12055590D01*
X25330400Y-18815590D02*
X23510400Y-18815590D01*
X22989400Y-14135590D02*
G75*
G02*
X23249400Y-14395590I0J-260000D01*
G01*
X18570400Y-11535590D02*
X18569400Y-9715590D01*
X22989400Y-16475590D02*
G75*
G02*
X23249400Y-16735590I0J-260000D01*
G01*
X18570400Y-13875590D02*
G75*
G02*
X18310400Y-14135590I-260000J0D01*
G01*
X24859400Y-9455590D02*
X25329400Y-9455590D01*
X16490400Y-11795590D02*
G75*
G02*
X16230400Y-11535590I0J260000D01*
G01*
X25330400Y-14135590D02*
X23510400Y-14135590D01*
X23249400Y-16735590D02*
G75*
G02*
X23509400Y-16475590I260000J0D01*
G01*
X16229400Y-16735590D02*
G75*
G02*
X16489400Y-16475590I260000J0D01*
G01*
X25590400Y-11535590D02*
X25589400Y-9715590D01*
X23509400Y-16475590D02*
X23979400Y-16475590D01*
X20910400Y-13875590D02*
G75*
G02*
X20650400Y-14135590I-260000J0D01*
G01*
X16230400Y-13875590D02*
X16229400Y-12055590D01*
X20179400Y-14135590D02*
X20649400Y-14135590D01*
X18569400Y-12055590D02*
G75*
G02*
X18829400Y-11795590I260000J0D01*
G01*
X18310400Y-14135590D02*
X16490400Y-14135590D01*
X18570400Y-16215590D02*
X18569400Y-14395590D01*
X16230400Y-11535590D02*
X16229400Y-9715590D01*
X23250400Y-18555590D02*
X23249400Y-16735590D01*
X20910400Y-11535590D02*
G75*
G02*
X20650400Y-11795590I-260000J0D01*
G01*
X22519400Y-14135590D02*
X22989400Y-14135590D01*
X16229400Y-12055590D02*
G75*
G02*
X16489400Y-11795590I260000J0D01*
G01*
X16489400Y-11795590D02*
X16959400Y-11795590D01*
X25590400Y-18555590D02*
G75*
G02*
X25330400Y-18815590I-260000J0D01*
G01*
X20910400Y-16215590D02*
X20909400Y-14395590D01*
X25590400Y-13875590D02*
X25589400Y-12055590D01*
X20909400Y-14395590D02*
G75*
G02*
X21169400Y-14135590I260000J0D01*
G01*
X18570400Y-18555590D02*
G75*
G02*
X18310400Y-18815590I-260000J0D01*
G01*
X23509400Y-9455590D02*
X23979400Y-9455590D01*
X23250400Y-11535590D02*
X23249400Y-9715590D01*
X18570400Y-11535590D02*
X18569400Y-9715590D01*
X20910400Y-13875590D02*
X20909400Y-12055590D01*
X18570400Y-18555590D02*
X18569400Y-16735590D01*
X21170400Y-16475590D02*
G75*
G02*
X20910400Y-16215590I0J260000D01*
G01*
X25590400Y-16215590D02*
X25589400Y-14395590D01*
X20650400Y-11795590D02*
X18830400Y-11795590D01*
X20910400Y-11535590D02*
X20909400Y-9715590D01*
X23509400Y-14135590D02*
X23979400Y-14135590D01*
X18309400Y-9455590D02*
G75*
G02*
X18569400Y-9715590I0J-260000D01*
G01*
X18830400Y-14135590D02*
G75*
G02*
X18570400Y-13875590I0J260000D01*
G01*
X23510400Y-16475590D02*
G75*
G02*
X23250400Y-16215590I0J260000D01*
G01*
X21169400Y-16475590D02*
X21639400Y-16475590D01*
X18570400Y-16215590D02*
G75*
G02*
X18310400Y-16475590I-260000J0D01*
G01*
X16489400Y-14135590D02*
X16959400Y-14135590D01*
X18569400Y-14395590D02*
G75*
G02*
X18829400Y-14135590I260000J0D01*
G01*
X22990400Y-14135590D02*
X21170400Y-14135590D01*
X18830400Y-18815590D02*
G75*
G02*
X18570400Y-18555590I0J260000D01*
G01*
X18309400Y-16475590D02*
G75*
G02*
X18569400Y-16735590I0J-260000D01*
G01*
X23510400Y-11795590D02*
G75*
G02*
X23250400Y-11535590I0J260000D01*
G01*
X20649400Y-14135590D02*
G75*
G02*
X20909400Y-14395590I0J-260000D01*
G01*
X17839400Y-11795590D02*
X18309400Y-11795590D01*
X20650400Y-16475590D02*
X18830400Y-16475590D01*
X21169400Y-9455590D02*
X21639400Y-9455590D01*
X25329400Y-16475590D02*
G75*
G02*
X25589400Y-16735590I0J-260000D01*
G01*
X16489400Y-9455590D02*
X16959400Y-9455590D01*
X22519400Y-9455590D02*
X22989400Y-9455590D01*
X16489400Y-16475590D02*
X16959400Y-16475590D01*
X23250400Y-11535590D02*
G75*
G02*
X22990400Y-11795590I-260000J0D01*
G01*
X18310400Y-11795590D02*
X16490400Y-11795590D01*
X23250400Y-13875590D02*
G75*
G02*
X22990400Y-14135590I-260000J0D01*
G01*
X16229400Y-9715590D02*
G75*
G02*
X16489400Y-9455590I260000J0D01*
G01*
X23250400Y-11535590D02*
X23249400Y-9715590D01*
X23510400Y-18815590D02*
G75*
G02*
X23250400Y-18555590I0J260000D01*
G01*
X18310400Y-18815590D02*
X16490400Y-18815590D01*
X21170400Y-11795590D02*
G75*
G02*
X20910400Y-11535590I0J260000D01*
G01*
X24859400Y-11795590D02*
X25329400Y-11795590D01*
X23509400Y-11795590D02*
X23979400Y-11795590D01*
X25590400Y-11535590D02*
G75*
G02*
X25330400Y-11795590I-260000J0D01*
G01*
X16490400Y-14135590D02*
G75*
G02*
X16230400Y-13875590I0J260000D01*
G01*
X16230400Y-16215590D02*
X16229400Y-14395590D01*
X20179400Y-11795590D02*
X20649400Y-11795590D01*
X18570400Y-16215590D02*
X18569400Y-14395590D01*
X21169400Y-14135590D02*
X21639400Y-14135590D01*
X20909400Y-9715590D02*
G75*
G02*
X21169400Y-9455590I260000J0D01*
G01*
X18570400Y-11535590D02*
G75*
G02*
X18310400Y-11795590I-260000J0D01*
G01*
X25330400Y-11795590D02*
X23510400Y-11795590D01*
X18570400Y-18555590D02*
X18569400Y-16735590D01*
X25329400Y-9455590D02*
G75*
G02*
X25589400Y-9715590I0J-260000D01*
G01*
X17839400Y-9455590D02*
X18309400Y-9455590D01*
X20650400Y-14135590D02*
X18830400Y-14135590D01*
X21169400Y-11795590D02*
X21639400Y-11795590D01*
X25330400Y-16475590D02*
X23510400Y-16475590D01*
X18310400Y-16475590D02*
X16490400Y-16475590D01*
X23250400Y-18555590D02*
X23249400Y-16735590D01*
X18829400Y-9455590D02*
X19299400Y-9455590D01*
X22990400Y-18815590D02*
X21170400Y-18815590D01*
X17839400Y-14135590D02*
X18309400Y-14135590D01*
X23249400Y-12055590D02*
G75*
G02*
X23509400Y-11795590I260000J0D01*
G01*
X18830400Y-16475590D02*
G75*
G02*
X18570400Y-16215590I0J260000D01*
G01*
X25590400Y-16215590D02*
G75*
G02*
X25330400Y-16475590I-260000J0D01*
G01*
X20649400Y-11795590D02*
G75*
G02*
X20909400Y-12055590I0J-260000D01*
G01*
X20910400Y-18555590D02*
X20909400Y-16735590D01*
X18830400Y-11795590D02*
G75*
G02*
X18570400Y-11535590I0J260000D01*
G01*
X20910400Y-18555590D02*
G75*
G02*
X20650400Y-18815590I-260000J0D01*
G01*
X18569400Y-16735590D02*
G75*
G02*
X18829400Y-16475590I260000J0D01*
G01*
X23250400Y-18555590D02*
G75*
G02*
X22990400Y-18815590I-260000J0D01*
G01*
X25590400Y-13875590D02*
G75*
G02*
X25330400Y-14135590I-260000J0D01*
G01*
X18829400Y-11795590D02*
X19299400Y-11795590D01*
X17839400Y-16475590D02*
X18309400Y-16475590D01*
X23250400Y-13875590D02*
X23249400Y-12055590D01*
X21170400Y-14135590D02*
G75*
G02*
X20910400Y-13875590I0J260000D01*
G01*
X18829400Y-14135590D02*
X19299400Y-14135590D01*
X20909400Y-16735590D02*
G75*
G02*
X21169400Y-16475590I260000J0D01*
G01*
X20910400Y-16215590D02*
G75*
G02*
X20650400Y-16475590I-260000J0D01*
G01*
X18570400Y-13875590D02*
X18569400Y-12055590D01*
X25329400Y-14135590D02*
G75*
G02*
X25589400Y-14395590I0J-260000D01*
G01*
X20179400Y-16475590D02*
X20649400Y-16475590D01*
X23250400Y-16215590D02*
X23249400Y-14395590D01*
X22990400Y-11795590D02*
X21170400Y-11795590D01*
X16490400Y-18815590D02*
G75*
G02*
X16230400Y-18555590I0J260000D01*
G01*
X22989400Y-11795590D02*
G75*
G02*
X23249400Y-12055590I0J-260000D01*
G01*
X18569400Y-9715590D02*
G75*
G02*
X18829400Y-9455590I260000J0D01*
G01*
X22989400Y-9455590D02*
G75*
G02*
X23249400Y-9715590I0J-260000D01*
G01*
X20649400Y-9455590D02*
G75*
G02*
X20909400Y-9715590I0J-260000D01*
G01*
X16230400Y-18555590D02*
X16229400Y-16735590D01*
X20179400Y-9455590D02*
X20649400Y-9455590D01*
X16490400Y-16475590D02*
G75*
G02*
X16230400Y-16215590I0J260000D01*
G01*
X16229400Y-14395590D02*
G75*
G02*
X16489400Y-14135590I260000J0D01*
G01*
X25590400Y-18555590D02*
X25589400Y-16735590D01*
X20650400Y-18815590D02*
X18830400Y-18815590D01*
X24859400Y-16475590D02*
X25329400Y-16475590D01*
X18829400Y-16475590D02*
X19299400Y-16475590D01*
X20909400Y-12055590D02*
G75*
G02*
X21169400Y-11795590I260000J0D01*
G01*
X25329400Y-11795590D02*
G75*
G02*
X25589400Y-12055590I0J-260000D01*
G01*
X18309400Y-11795590D02*
G75*
G02*
X18569400Y-12055590I0J-260000D01*
G01*
X20910400Y-11535590D02*
X20909400Y-9715590D01*
X21639400Y-9455590D02*
X21639400Y-10175590D01*
X22519400Y-10175590D02*
X21639400Y-10175590D01*
X22519400Y-10175590D02*
X22519400Y-9455590D01*
X21639400Y-16475590D02*
X21639400Y-17195590D01*
X22519400Y-17195590D02*
X21639400Y-17195590D01*
X22519400Y-17195590D02*
X22519400Y-16475590D01*
X23979400Y-9455590D02*
X23979400Y-10175590D01*
X24859400Y-10175590D02*
X23979400Y-10175590D01*
X24859400Y-10175590D02*
X24859400Y-9455590D01*
X16959400Y-11795590D02*
X16959400Y-12515590D01*
X17839400Y-12515590D02*
X16959400Y-12515590D01*
X17839400Y-12515590D02*
X17839400Y-11795590D01*
X23979400Y-16475590D02*
X23979400Y-17195590D01*
X24859400Y-17195590D02*
X23979400Y-17195590D01*
X24859400Y-17195590D02*
X24859400Y-16475590D01*
X19299400Y-16475590D02*
X19299400Y-17195590D01*
X20179400Y-17195590D02*
X19299400Y-17195590D01*
X20179400Y-17195590D02*
X20179400Y-16475590D01*
X21639400Y-11795590D02*
X21639400Y-12515590D01*
X22519400Y-12515590D02*
X21639400Y-12515590D01*
X22519400Y-12515590D02*
X22519400Y-11795590D01*
X21639400Y-14135590D02*
X21639400Y-14855590D01*
X22519400Y-14855590D02*
X21639400Y-14855590D01*
X22519400Y-14855590D02*
X22519400Y-14135590D01*
X19299400Y-14135590D02*
X19299400Y-14855590D01*
X20179400Y-14855590D02*
X19299400Y-14855590D01*
X20179400Y-14855590D02*
X20179400Y-14135590D01*
X19299400Y-11795590D02*
X19299400Y-12515590D01*
X20179400Y-12515590D02*
X19299400Y-12515590D01*
X20179400Y-12515590D02*
X20179400Y-11795590D01*
X16959400Y-9455590D02*
X16959400Y-10175590D01*
X17839400Y-10175590D02*
X16959400Y-10175590D01*
X17839400Y-10175590D02*
X17839400Y-9455590D01*
X23979400Y-14135590D02*
X23979400Y-14855590D01*
X24859400Y-14855590D02*
X23979400Y-14855590D01*
X24859400Y-14855590D02*
X24859400Y-14135590D01*
X23979400Y-11795590D02*
X23979400Y-12515590D01*
X24859400Y-12515590D02*
X23979400Y-12515590D01*
X24859400Y-12515590D02*
X24859400Y-11795590D01*
X19299400Y-9455590D02*
X19299400Y-10175590D01*
X20179400Y-10175590D02*
X19299400Y-10175590D01*
X20179400Y-10175590D02*
X20179400Y-9455590D01*
X16959400Y-16475590D02*
X16959400Y-17195590D01*
X17839400Y-17195590D02*
X16959400Y-17195590D01*
X17839400Y-17195590D02*
X17839400Y-16475590D01*
X16959400Y-14135590D02*
X16959400Y-14855590D01*
X17839400Y-14855590D02*
X16959400Y-14855590D01*
X17839400Y-14855590D02*
X17839400Y-14135590D01*
D11*
D12*
X16378920Y-9597880D02*
X16598920Y-9817880D01*
X16598920Y-9597880D02*
X16378920Y-9817880D01*
X16378920Y-11400640D02*
X16598920Y-11620640D01*
X16598920Y-11400640D02*
X16378920Y-11620640D01*
X16378920Y-11937880D02*
X16598920Y-12157880D01*
X16598920Y-11937880D02*
X16378920Y-12157880D01*
X16378920Y-13740640D02*
X16598920Y-13960640D01*
X16598920Y-13740640D02*
X16378920Y-13960640D01*
X16378920Y-14277880D02*
X16598920Y-14497880D01*
X16598920Y-14277880D02*
X16378920Y-14497880D01*
X16378920Y-16080640D02*
X16598920Y-16300640D01*
X16598920Y-16080640D02*
X16378920Y-16300640D01*
X16378920Y-16617880D02*
X16598920Y-16837880D01*
X16598920Y-16617880D02*
X16378920Y-16837880D01*
X16378920Y-18420640D02*
X16598920Y-18640640D01*
X16598920Y-18420640D02*
X16378920Y-18640640D01*
X18208480Y-9597880D02*
X18428480Y-9817880D01*
X18428480Y-9597880D02*
X18208480Y-9817880D01*
X18208480Y-11400640D02*
X18428480Y-11620640D01*
X18428480Y-11400640D02*
X18208480Y-11620640D01*
X18208480Y-11937880D02*
X18428480Y-12157880D01*
X18428480Y-11937880D02*
X18208480Y-12157880D01*
X18208480Y-13740640D02*
X18428480Y-13960640D01*
X18428480Y-13740640D02*
X18208480Y-13960640D01*
X18208480Y-14277880D02*
X18428480Y-14497880D01*
X18428480Y-14277880D02*
X18208480Y-14497880D01*
X18208480Y-16080640D02*
X18428480Y-16300640D01*
X18428480Y-16080640D02*
X18208480Y-16300640D01*
X18208480Y-16617880D02*
X18428480Y-16837880D01*
X18428480Y-16617880D02*
X18208480Y-16837880D01*
X18208480Y-18420640D02*
X18428480Y-18640640D01*
X18428480Y-18420640D02*
X18208480Y-18640640D01*
X18718920Y-9597880D02*
X18938920Y-9817880D01*
X18938920Y-9597880D02*
X18718920Y-9817880D01*
X18718920Y-11400640D02*
X18938920Y-11620640D01*
X18938920Y-11400640D02*
X18718920Y-11620640D01*
X18718920Y-11937880D02*
X18938920Y-12157880D01*
X18938920Y-11937880D02*
X18718920Y-12157880D01*
X18718920Y-13740640D02*
X18938920Y-13960640D01*
X18938920Y-13740640D02*
X18718920Y-13960640D01*
X18718920Y-14277880D02*
X18938920Y-14497880D01*
X18938920Y-14277880D02*
X18718920Y-14497880D01*
X18718920Y-16080640D02*
X18938920Y-16300640D01*
X18938920Y-16080640D02*
X18718920Y-16300640D01*
X18718920Y-16617880D02*
X18938920Y-16837880D01*
X18938920Y-16617880D02*
X18718920Y-16837880D01*
X18718920Y-18420640D02*
X18938920Y-18640640D01*
X18938920Y-18420640D02*
X18718920Y-18640640D01*
X20548480Y-9597880D02*
X20768480Y-9817880D01*
X20768480Y-9597880D02*
X20548480Y-9817880D01*
X20548480Y-11400640D02*
X20768480Y-11620640D01*
X20768480Y-11400640D02*
X20548480Y-11620640D01*
X20548480Y-11937880D02*
X20768480Y-12157880D01*
X20768480Y-11937880D02*
X20548480Y-12157880D01*
X20548480Y-13740640D02*
X20768480Y-13960640D01*
X20768480Y-13740640D02*
X20548480Y-13960640D01*
X20548480Y-14277880D02*
X20768480Y-14497880D01*
X20768480Y-14277880D02*
X20548480Y-14497880D01*
X20548480Y-16080640D02*
X20768480Y-16300640D01*
X20768480Y-16080640D02*
X20548480Y-16300640D01*
X20548480Y-16617880D02*
X20768480Y-16837880D01*
X20768480Y-16617880D02*
X20548480Y-16837880D01*
X20548480Y-18420640D02*
X20768480Y-18640640D01*
X20768480Y-18420640D02*
X20548480Y-18640640D01*
X21058920Y-9597880D02*
X21278920Y-9817880D01*
X21278920Y-9597880D02*
X21058920Y-9817880D01*
X21058920Y-11400640D02*
X21278920Y-11620640D01*
X21278920Y-11400640D02*
X21058920Y-11620640D01*
X21058920Y-11937880D02*
X21278920Y-12157880D01*
X21278920Y-11937880D02*
X21058920Y-12157880D01*
X21058920Y-13740640D02*
X21278920Y-13960640D01*
X21278920Y-13740640D02*
X21058920Y-13960640D01*
X21058920Y-14277880D02*
X21278920Y-14497880D01*
X21278920Y-14277880D02*
X21058920Y-14497880D01*
X21058920Y-16080640D02*
X21278920Y-16300640D01*
X21278920Y-16080640D02*
X21058920Y-16300640D01*
X21058920Y-16617880D02*
X21278920Y-16837880D01*
X21278920Y-16617880D02*
X21058920Y-16837880D01*
X21058920Y-18420640D02*
X21278920Y-18640640D01*
X21278920Y-18420640D02*
X21058920Y-18640640D01*
X22888480Y-9597880D02*
X23108480Y-9817880D01*
X23108480Y-9597880D02*
X22888480Y-9817880D01*
X22888480Y-11400640D02*
X23108480Y-11620640D01*
X23108480Y-11400640D02*
X22888480Y-11620640D01*
X22888480Y-11937880D02*
X23108480Y-12157880D01*
X23108480Y-11937880D02*
X22888480Y-12157880D01*
X22888480Y-13740640D02*
X23108480Y-13960640D01*
X23108480Y-13740640D02*
X22888480Y-13960640D01*
X22888480Y-14277880D02*
X23108480Y-14497880D01*
X23108480Y-14277880D02*
X22888480Y-14497880D01*
X22888480Y-16080640D02*
X23108480Y-16300640D01*
X23108480Y-16080640D02*
X22888480Y-16300640D01*
X22888480Y-16617880D02*
X23108480Y-16837880D01*
X23108480Y-16617880D02*
X22888480Y-16837880D01*
X22888480Y-18420640D02*
X23108480Y-18640640D01*
X23108480Y-18420640D02*
X22888480Y-18640640D01*
X23398920Y-9597880D02*
X23618920Y-9817880D01*
X23618920Y-9597880D02*
X23398920Y-9817880D01*
X23398920Y-11400640D02*
X23618920Y-11620640D01*
X23618920Y-11400640D02*
X23398920Y-11620640D01*
X23398920Y-11937880D02*
X23618920Y-12157880D01*
X23618920Y-11937880D02*
X23398920Y-12157880D01*
X23398920Y-13740640D02*
X23618920Y-13960640D01*
X23618920Y-13740640D02*
X23398920Y-13960640D01*
X23398920Y-14277880D02*
X23618920Y-14497880D01*
X23618920Y-14277880D02*
X23398920Y-14497880D01*
X23398920Y-16080640D02*
X23618920Y-16300640D01*
X23618920Y-16080640D02*
X23398920Y-16300640D01*
X23398920Y-16617880D02*
X23618920Y-16837880D01*
X23618920Y-16617880D02*
X23398920Y-16837880D01*
X23398920Y-18420640D02*
X23618920Y-18640640D01*
X23618920Y-18420640D02*
X23398920Y-18640640D01*
X25228480Y-9597880D02*
X25448480Y-9817880D01*
X25448480Y-9597880D02*
X25228480Y-9817880D01*
X25228480Y-11400640D02*
X25448480Y-11620640D01*
X25448480Y-11400640D02*
X25228480Y-11620640D01*
X25228480Y-11937880D02*
X25448480Y-12157880D01*
X25448480Y-11937880D02*
X25228480Y-12157880D01*
X25228480Y-13740640D02*
X25448480Y-13960640D01*
X25448480Y-13740640D02*
X25228480Y-13960640D01*
X25228480Y-14277880D02*
X25448480Y-14497880D01*
X25448480Y-14277880D02*
X25228480Y-14497880D01*
X25228480Y-16080640D02*
X25448480Y-16300640D01*
X25448480Y-16080640D02*
X25228480Y-16300640D01*
X25228480Y-16617880D02*
X25448480Y-16837880D01*
X25448480Y-16617880D02*
X25228480Y-16837880D01*
X25228480Y-18420640D02*
X25448480Y-18640640D01*
X25448480Y-18420640D02*
X25228480Y-18640640D01*
D11*
X16487677Y-19129574D02*
X16487677Y-18929574D01*
X16487677Y-18929574D02*
X16535296Y-18929574D01*
X16535296Y-18929574D02*
X16563867Y-18939098D01*
X16563867Y-18939098D02*
X16582915Y-18958145D01*
X16582915Y-18958145D02*
X16592439Y-18977193D01*
X16592439Y-18977193D02*
X16601962Y-19015288D01*
X16601962Y-19015288D02*
X16601962Y-19043860D01*
X16601962Y-19043860D02*
X16592439Y-19081955D01*
X16592439Y-19081955D02*
X16582915Y-19101002D01*
X16582915Y-19101002D02*
X16563867Y-19120050D01*
X16563867Y-19120050D02*
X16535296Y-19129574D01*
X16535296Y-19129574D02*
X16487677Y-19129574D01*
X16687677Y-19129574D02*
X16687677Y-18996240D01*
X16687677Y-19034336D02*
X16697201Y-19015288D01*
X16697201Y-19015288D02*
X16706724Y-19005764D01*
X16706724Y-19005764D02*
X16725772Y-18996240D01*
X16725772Y-18996240D02*
X16744820Y-18996240D01*
X16811486Y-19129574D02*
X16811486Y-18996240D01*
X16811486Y-18929574D02*
X16801963Y-18939098D01*
X16801963Y-18939098D02*
X16811486Y-18948621D01*
X16811486Y-18948621D02*
X16821010Y-18939098D01*
X16821010Y-18939098D02*
X16811486Y-18929574D01*
X16811486Y-18929574D02*
X16811486Y-18948621D01*
X16935296Y-19129574D02*
X16916248Y-19120050D01*
X16916248Y-19120050D02*
X16906724Y-19101002D01*
X16906724Y-19101002D02*
X16906724Y-18929574D01*
X17040058Y-19129574D02*
X17021010Y-19120050D01*
X17021010Y-19120050D02*
X17011486Y-19101002D01*
X17011486Y-19101002D02*
X17011486Y-18929574D01*
X17268629Y-19129574D02*
X17268629Y-18929574D01*
X17268629Y-18929574D02*
X17335296Y-19072431D01*
X17335296Y-19072431D02*
X17401963Y-18929574D01*
X17401963Y-18929574D02*
X17401963Y-19129574D01*
X17582915Y-19129574D02*
X17582915Y-19024812D01*
X17582915Y-19024812D02*
X17573391Y-19005764D01*
X17573391Y-19005764D02*
X17554344Y-18996240D01*
X17554344Y-18996240D02*
X17516248Y-18996240D01*
X17516248Y-18996240D02*
X17497201Y-19005764D01*
X17582915Y-19120050D02*
X17563867Y-19129574D01*
X17563867Y-19129574D02*
X17516248Y-19129574D01*
X17516248Y-19129574D02*
X17497201Y-19120050D01*
X17497201Y-19120050D02*
X17487677Y-19101002D01*
X17487677Y-19101002D02*
X17487677Y-19081955D01*
X17487677Y-19081955D02*
X17497201Y-19062907D01*
X17497201Y-19062907D02*
X17516248Y-19053383D01*
X17516248Y-19053383D02*
X17563867Y-19053383D01*
X17563867Y-19053383D02*
X17582915Y-19043860D01*
X17678153Y-18996240D02*
X17678153Y-19196240D01*
X17678153Y-19005764D02*
X17697201Y-18996240D01*
X17697201Y-18996240D02*
X17735296Y-18996240D01*
X17735296Y-18996240D02*
X17754344Y-19005764D01*
X17754344Y-19005764D02*
X17763867Y-19015288D01*
X17763867Y-19015288D02*
X17773391Y-19034336D01*
X17773391Y-19034336D02*
X17773391Y-19091479D01*
X17773391Y-19091479D02*
X17763867Y-19110526D01*
X17763867Y-19110526D02*
X17754344Y-19120050D01*
X17754344Y-19120050D02*
X17735296Y-19129574D01*
X17735296Y-19129574D02*
X17697201Y-19129574D01*
X17697201Y-19129574D02*
X17678153Y-19120050D01*
X17859105Y-19110526D02*
X17868629Y-19120050D01*
X17868629Y-19120050D02*
X17859105Y-19129574D01*
X17859105Y-19129574D02*
X17849582Y-19120050D01*
X17849582Y-19120050D02*
X17859105Y-19110526D01*
X17859105Y-19110526D02*
X17859105Y-19129574D01*
X17859105Y-19005764D02*
X17868629Y-19015288D01*
X17868629Y-19015288D02*
X17859105Y-19024812D01*
X17859105Y-19024812D02*
X17849582Y-19015288D01*
X17849582Y-19015288D02*
X17859105Y-19005764D01*
X17859105Y-19005764D02*
X17859105Y-19024812D01*
X16026900Y-19358090D02*
X16226900Y-19558090D01*
X16226900Y-19358090D02*
X16026900Y-19558090D01*
X16478153Y-19368621D02*
X16487677Y-19359098D01*
X16487677Y-19359098D02*
X16506724Y-19349574D01*
X16506724Y-19349574D02*
X16554343Y-19349574D01*
X16554343Y-19349574D02*
X16573391Y-19359098D01*
X16573391Y-19359098D02*
X16582915Y-19368621D01*
X16582915Y-19368621D02*
X16592439Y-19387669D01*
X16592439Y-19387669D02*
X16592439Y-19406717D01*
X16592439Y-19406717D02*
X16582915Y-19435288D01*
X16582915Y-19435288D02*
X16468629Y-19549574D01*
X16468629Y-19549574D02*
X16592439Y-19549574D01*
X16678153Y-19530526D02*
X16687677Y-19540050D01*
X16687677Y-19540050D02*
X16678153Y-19549574D01*
X16678153Y-19549574D02*
X16668629Y-19540050D01*
X16668629Y-19540050D02*
X16678153Y-19530526D01*
X16678153Y-19530526D02*
X16678153Y-19549574D01*
X16763867Y-19368621D02*
X16773391Y-19359098D01*
X16773391Y-19359098D02*
X16792439Y-19349574D01*
X16792439Y-19349574D02*
X16840058Y-19349574D01*
X16840058Y-19349574D02*
X16859105Y-19359098D01*
X16859105Y-19359098D02*
X16868629Y-19368621D01*
X16868629Y-19368621D02*
X16878153Y-19387669D01*
X16878153Y-19387669D02*
X16878153Y-19406717D01*
X16878153Y-19406717D02*
X16868629Y-19435288D01*
X16868629Y-19435288D02*
X16754343Y-19549574D01*
X16754343Y-19549574D02*
X16878153Y-19549574D01*
X17001963Y-19349574D02*
X17021010Y-19349574D01*
X17021010Y-19349574D02*
X17040058Y-19359098D01*
X17040058Y-19359098D02*
X17049582Y-19368621D01*
X17049582Y-19368621D02*
X17059105Y-19387669D01*
X17059105Y-19387669D02*
X17068629Y-19425764D01*
X17068629Y-19425764D02*
X17068629Y-19473383D01*
X17068629Y-19473383D02*
X17059105Y-19511479D01*
X17059105Y-19511479D02*
X17049582Y-19530526D01*
X17049582Y-19530526D02*
X17040058Y-19540050D01*
X17040058Y-19540050D02*
X17021010Y-19549574D01*
X17021010Y-19549574D02*
X17001963Y-19549574D01*
X17001963Y-19549574D02*
X16982915Y-19540050D01*
X16982915Y-19540050D02*
X16973391Y-19530526D01*
X16973391Y-19530526D02*
X16963867Y-19511479D01*
X16963867Y-19511479D02*
X16954344Y-19473383D01*
X16954344Y-19473383D02*
X16954344Y-19425764D01*
X16954344Y-19425764D02*
X16963867Y-19387669D01*
X16963867Y-19387669D02*
X16973391Y-19368621D01*
X16973391Y-19368621D02*
X16982915Y-19359098D01*
X16982915Y-19359098D02*
X17001963Y-19349574D01*
X17192439Y-19349574D02*
X17211486Y-19349574D01*
X17211486Y-19349574D02*
X17230534Y-19359098D01*
X17230534Y-19359098D02*
X17240058Y-19368621D01*
X17240058Y-19368621D02*
X17249582Y-19387669D01*
X17249582Y-19387669D02*
X17259105Y-19425764D01*
X17259105Y-19425764D02*
X17259105Y-19473383D01*
X17259105Y-19473383D02*
X17249582Y-19511479D01*
X17249582Y-19511479D02*
X17240058Y-19530526D01*
X17240058Y-19530526D02*
X17230534Y-19540050D01*
X17230534Y-19540050D02*
X17211486Y-19549574D01*
X17211486Y-19549574D02*
X17192439Y-19549574D01*
X17192439Y-19549574D02*
X17173391Y-19540050D01*
X17173391Y-19540050D02*
X17163867Y-19530526D01*
X17163867Y-19530526D02*
X17154344Y-19511479D01*
X17154344Y-19511479D02*
X17144820Y-19473383D01*
X17144820Y-19473383D02*
X17144820Y-19425764D01*
X17144820Y-19425764D02*
X17154344Y-19387669D01*
X17154344Y-19387669D02*
X17163867Y-19368621D01*
X17163867Y-19368621D02*
X17173391Y-19359098D01*
X17173391Y-19359098D02*
X17192439Y-19349574D01*
X17344820Y-19549574D02*
X17344820Y-19416240D01*
X17344820Y-19435288D02*
X17354344Y-19425764D01*
X17354344Y-19425764D02*
X17373391Y-19416240D01*
X17373391Y-19416240D02*
X17401963Y-19416240D01*
X17401963Y-19416240D02*
X17421010Y-19425764D01*
X17421010Y-19425764D02*
X17430534Y-19444812D01*
X17430534Y-19444812D02*
X17430534Y-19549574D01*
X17430534Y-19444812D02*
X17440058Y-19425764D01*
X17440058Y-19425764D02*
X17459105Y-19416240D01*
X17459105Y-19416240D02*
X17487677Y-19416240D01*
X17487677Y-19416240D02*
X17506725Y-19425764D01*
X17506725Y-19425764D02*
X17516248Y-19444812D01*
X17516248Y-19444812D02*
X17516248Y-19549574D01*
X17611486Y-19549574D02*
X17611486Y-19416240D01*
X17611486Y-19435288D02*
X17621010Y-19425764D01*
X17621010Y-19425764D02*
X17640058Y-19416240D01*
X17640058Y-19416240D02*
X17668629Y-19416240D01*
X17668629Y-19416240D02*
X17687677Y-19425764D01*
X17687677Y-19425764D02*
X17697201Y-19444812D01*
X17697201Y-19444812D02*
X17697201Y-19549574D01*
X17697201Y-19444812D02*
X17706725Y-19425764D01*
X17706725Y-19425764D02*
X17725772Y-19416240D01*
X17725772Y-19416240D02*
X17754344Y-19416240D01*
X17754344Y-19416240D02*
X17773391Y-19425764D01*
X17773391Y-19425764D02*
X17782915Y-19444812D01*
X17782915Y-19444812D02*
X17782915Y-19549574D01*
X18173391Y-19340050D02*
X18001963Y-19597193D01*
X18430534Y-19349574D02*
X18449582Y-19349574D01*
X18449582Y-19349574D02*
X18468629Y-19359098D01*
X18468629Y-19359098D02*
X18478153Y-19368621D01*
X18478153Y-19368621D02*
X18487677Y-19387669D01*
X18487677Y-19387669D02*
X18497201Y-19425764D01*
X18497201Y-19425764D02*
X18497201Y-19473383D01*
X18497201Y-19473383D02*
X18487677Y-19511479D01*
X18487677Y-19511479D02*
X18478153Y-19530526D01*
X18478153Y-19530526D02*
X18468629Y-19540050D01*
X18468629Y-19540050D02*
X18449582Y-19549574D01*
X18449582Y-19549574D02*
X18430534Y-19549574D01*
X18430534Y-19549574D02*
X18411487Y-19540050D01*
X18411487Y-19540050D02*
X18401963Y-19530526D01*
X18401963Y-19530526D02*
X18392439Y-19511479D01*
X18392439Y-19511479D02*
X18382915Y-19473383D01*
X18382915Y-19473383D02*
X18382915Y-19425764D01*
X18382915Y-19425764D02*
X18392439Y-19387669D01*
X18392439Y-19387669D02*
X18401963Y-19368621D01*
X18401963Y-19368621D02*
X18411487Y-19359098D01*
X18411487Y-19359098D02*
X18430534Y-19349574D01*
X18582915Y-19530526D02*
X18592439Y-19540050D01*
X18592439Y-19540050D02*
X18582915Y-19549574D01*
X18582915Y-19549574D02*
X18573391Y-19540050D01*
X18573391Y-19540050D02*
X18582915Y-19530526D01*
X18582915Y-19530526D02*
X18582915Y-19549574D01*
X18716248Y-19349574D02*
X18735296Y-19349574D01*
X18735296Y-19349574D02*
X18754344Y-19359098D01*
X18754344Y-19359098D02*
X18763868Y-19368621D01*
X18763868Y-19368621D02*
X18773391Y-19387669D01*
X18773391Y-19387669D02*
X18782915Y-19425764D01*
X18782915Y-19425764D02*
X18782915Y-19473383D01*
X18782915Y-19473383D02*
X18773391Y-19511479D01*
X18773391Y-19511479D02*
X18763868Y-19530526D01*
X18763868Y-19530526D02*
X18754344Y-19540050D01*
X18754344Y-19540050D02*
X18735296Y-19549574D01*
X18735296Y-19549574D02*
X18716248Y-19549574D01*
X18716248Y-19549574D02*
X18697201Y-19540050D01*
X18697201Y-19540050D02*
X18687677Y-19530526D01*
X18687677Y-19530526D02*
X18678153Y-19511479D01*
X18678153Y-19511479D02*
X18668629Y-19473383D01*
X18668629Y-19473383D02*
X18668629Y-19425764D01*
X18668629Y-19425764D02*
X18678153Y-19387669D01*
X18678153Y-19387669D02*
X18687677Y-19368621D01*
X18687677Y-19368621D02*
X18697201Y-19359098D01*
X18697201Y-19359098D02*
X18716248Y-19349574D01*
X18897201Y-19435288D02*
X18878153Y-19425764D01*
X18878153Y-19425764D02*
X18868629Y-19416240D01*
X18868629Y-19416240D02*
X18859106Y-19397193D01*
X18859106Y-19397193D02*
X18859106Y-19387669D01*
X18859106Y-19387669D02*
X18868629Y-19368621D01*
X18868629Y-19368621D02*
X18878153Y-19359098D01*
X18878153Y-19359098D02*
X18897201Y-19349574D01*
X18897201Y-19349574D02*
X18935296Y-19349574D01*
X18935296Y-19349574D02*
X18954344Y-19359098D01*
X18954344Y-19359098D02*
X18963868Y-19368621D01*
X18963868Y-19368621D02*
X18973391Y-19387669D01*
X18973391Y-19387669D02*
X18973391Y-19397193D01*
X18973391Y-19397193D02*
X18963868Y-19416240D01*
X18963868Y-19416240D02*
X18954344Y-19425764D01*
X18954344Y-19425764D02*
X18935296Y-19435288D01*
X18935296Y-19435288D02*
X18897201Y-19435288D01*
X18897201Y-19435288D02*
X18878153Y-19444812D01*
X18878153Y-19444812D02*
X18868629Y-19454336D01*
X18868629Y-19454336D02*
X18859106Y-19473383D01*
X18859106Y-19473383D02*
X18859106Y-19511479D01*
X18859106Y-19511479D02*
X18868629Y-19530526D01*
X18868629Y-19530526D02*
X18878153Y-19540050D01*
X18878153Y-19540050D02*
X18897201Y-19549574D01*
X18897201Y-19549574D02*
X18935296Y-19549574D01*
X18935296Y-19549574D02*
X18954344Y-19540050D01*
X18954344Y-19540050D02*
X18963868Y-19530526D01*
X18963868Y-19530526D02*
X18973391Y-19511479D01*
X18973391Y-19511479D02*
X18973391Y-19473383D01*
X18973391Y-19473383D02*
X18963868Y-19454336D01*
X18963868Y-19454336D02*
X18954344Y-19444812D01*
X18954344Y-19444812D02*
X18935296Y-19435288D01*
X19144820Y-19349574D02*
X19106725Y-19349574D01*
X19106725Y-19349574D02*
X19087677Y-19359098D01*
X19087677Y-19359098D02*
X19078153Y-19368621D01*
X19078153Y-19368621D02*
X19059106Y-19397193D01*
X19059106Y-19397193D02*
X19049582Y-19435288D01*
X19049582Y-19435288D02*
X19049582Y-19511479D01*
X19049582Y-19511479D02*
X19059106Y-19530526D01*
X19059106Y-19530526D02*
X19068629Y-19540050D01*
X19068629Y-19540050D02*
X19087677Y-19549574D01*
X19087677Y-19549574D02*
X19125772Y-19549574D01*
X19125772Y-19549574D02*
X19144820Y-19540050D01*
X19144820Y-19540050D02*
X19154344Y-19530526D01*
X19154344Y-19530526D02*
X19163868Y-19511479D01*
X19163868Y-19511479D02*
X19163868Y-19463860D01*
X19163868Y-19463860D02*
X19154344Y-19444812D01*
X19154344Y-19444812D02*
X19144820Y-19435288D01*
X19144820Y-19435288D02*
X19125772Y-19425764D01*
X19125772Y-19425764D02*
X19087677Y-19425764D01*
X19087677Y-19425764D02*
X19068629Y-19435288D01*
X19068629Y-19435288D02*
X19059106Y-19444812D01*
X19059106Y-19444812D02*
X19049582Y-19463860D01*
X19335296Y-19349574D02*
X19297201Y-19349574D01*
X19297201Y-19349574D02*
X19278153Y-19359098D01*
X19278153Y-19359098D02*
X19268629Y-19368621D01*
X19268629Y-19368621D02*
X19249582Y-19397193D01*
X19249582Y-19397193D02*
X19240058Y-19435288D01*
X19240058Y-19435288D02*
X19240058Y-19511479D01*
X19240058Y-19511479D02*
X19249582Y-19530526D01*
X19249582Y-19530526D02*
X19259106Y-19540050D01*
X19259106Y-19540050D02*
X19278153Y-19549574D01*
X19278153Y-19549574D02*
X19316249Y-19549574D01*
X19316249Y-19549574D02*
X19335296Y-19540050D01*
X19335296Y-19540050D02*
X19344820Y-19530526D01*
X19344820Y-19530526D02*
X19354344Y-19511479D01*
X19354344Y-19511479D02*
X19354344Y-19463860D01*
X19354344Y-19463860D02*
X19344820Y-19444812D01*
X19344820Y-19444812D02*
X19335296Y-19435288D01*
X19335296Y-19435288D02*
X19316249Y-19425764D01*
X19316249Y-19425764D02*
X19278153Y-19425764D01*
X19278153Y-19425764D02*
X19259106Y-19435288D01*
X19259106Y-19435288D02*
X19249582Y-19444812D01*
X19249582Y-19444812D02*
X19240058Y-19463860D01*
X19430534Y-19349574D02*
X19430534Y-19387669D01*
X19506725Y-19349574D02*
X19506725Y-19387669D01*
X19801963Y-19625764D02*
X19792439Y-19616240D01*
X19792439Y-19616240D02*
X19773391Y-19587669D01*
X19773391Y-19587669D02*
X19763868Y-19568621D01*
X19763868Y-19568621D02*
X19754344Y-19540050D01*
X19754344Y-19540050D02*
X19744820Y-19492431D01*
X19744820Y-19492431D02*
X19744820Y-19454336D01*
X19744820Y-19454336D02*
X19754344Y-19406717D01*
X19754344Y-19406717D02*
X19763868Y-19378145D01*
X19763868Y-19378145D02*
X19773391Y-19359098D01*
X19773391Y-19359098D02*
X19792439Y-19330526D01*
X19792439Y-19330526D02*
X19801963Y-19321002D01*
X19963868Y-19349574D02*
X19925772Y-19349574D01*
X19925772Y-19349574D02*
X19906725Y-19359098D01*
X19906725Y-19359098D02*
X19897201Y-19368621D01*
X19897201Y-19368621D02*
X19878153Y-19397193D01*
X19878153Y-19397193D02*
X19868630Y-19435288D01*
X19868630Y-19435288D02*
X19868630Y-19511479D01*
X19868630Y-19511479D02*
X19878153Y-19530526D01*
X19878153Y-19530526D02*
X19887677Y-19540050D01*
X19887677Y-19540050D02*
X19906725Y-19549574D01*
X19906725Y-19549574D02*
X19944820Y-19549574D01*
X19944820Y-19549574D02*
X19963868Y-19540050D01*
X19963868Y-19540050D02*
X19973391Y-19530526D01*
X19973391Y-19530526D02*
X19982915Y-19511479D01*
X19982915Y-19511479D02*
X19982915Y-19463860D01*
X19982915Y-19463860D02*
X19973391Y-19444812D01*
X19973391Y-19444812D02*
X19963868Y-19435288D01*
X19963868Y-19435288D02*
X19944820Y-19425764D01*
X19944820Y-19425764D02*
X19906725Y-19425764D01*
X19906725Y-19425764D02*
X19887677Y-19435288D01*
X19887677Y-19435288D02*
X19878153Y-19444812D01*
X19878153Y-19444812D02*
X19868630Y-19463860D01*
X20154344Y-19416240D02*
X20154344Y-19549574D01*
X20106725Y-19340050D02*
X20059106Y-19482907D01*
X20059106Y-19482907D02*
X20182915Y-19482907D01*
X20411487Y-19549574D02*
X20411487Y-19349574D01*
X20497201Y-19549574D02*
X20497201Y-19444812D01*
X20497201Y-19444812D02*
X20487677Y-19425764D01*
X20487677Y-19425764D02*
X20468630Y-19416240D01*
X20468630Y-19416240D02*
X20440058Y-19416240D01*
X20440058Y-19416240D02*
X20421011Y-19425764D01*
X20421011Y-19425764D02*
X20411487Y-19435288D01*
X20621011Y-19549574D02*
X20601963Y-19540050D01*
X20601963Y-19540050D02*
X20592439Y-19530526D01*
X20592439Y-19530526D02*
X20582915Y-19511479D01*
X20582915Y-19511479D02*
X20582915Y-19454336D01*
X20582915Y-19454336D02*
X20592439Y-19435288D01*
X20592439Y-19435288D02*
X20601963Y-19425764D01*
X20601963Y-19425764D02*
X20621011Y-19416240D01*
X20621011Y-19416240D02*
X20649582Y-19416240D01*
X20649582Y-19416240D02*
X20668630Y-19425764D01*
X20668630Y-19425764D02*
X20678153Y-19435288D01*
X20678153Y-19435288D02*
X20687677Y-19454336D01*
X20687677Y-19454336D02*
X20687677Y-19511479D01*
X20687677Y-19511479D02*
X20678153Y-19530526D01*
X20678153Y-19530526D02*
X20668630Y-19540050D01*
X20668630Y-19540050D02*
X20649582Y-19549574D01*
X20649582Y-19549574D02*
X20621011Y-19549574D01*
X20801963Y-19549574D02*
X20782915Y-19540050D01*
X20782915Y-19540050D02*
X20773392Y-19521002D01*
X20773392Y-19521002D02*
X20773392Y-19349574D01*
X20954344Y-19540050D02*
X20935296Y-19549574D01*
X20935296Y-19549574D02*
X20897201Y-19549574D01*
X20897201Y-19549574D02*
X20878153Y-19540050D01*
X20878153Y-19540050D02*
X20868630Y-19521002D01*
X20868630Y-19521002D02*
X20868630Y-19444812D01*
X20868630Y-19444812D02*
X20878153Y-19425764D01*
X20878153Y-19425764D02*
X20897201Y-19416240D01*
X20897201Y-19416240D02*
X20935296Y-19416240D01*
X20935296Y-19416240D02*
X20954344Y-19425764D01*
X20954344Y-19425764D02*
X20963868Y-19444812D01*
X20963868Y-19444812D02*
X20963868Y-19463860D01*
X20963868Y-19463860D02*
X20868630Y-19482907D01*
X21040058Y-19540050D02*
X21059106Y-19549574D01*
X21059106Y-19549574D02*
X21097201Y-19549574D01*
X21097201Y-19549574D02*
X21116249Y-19540050D01*
X21116249Y-19540050D02*
X21125773Y-19521002D01*
X21125773Y-19521002D02*
X21125773Y-19511479D01*
X21125773Y-19511479D02*
X21116249Y-19492431D01*
X21116249Y-19492431D02*
X21097201Y-19482907D01*
X21097201Y-19482907D02*
X21068630Y-19482907D01*
X21068630Y-19482907D02*
X21049582Y-19473383D01*
X21049582Y-19473383D02*
X21040058Y-19454336D01*
X21040058Y-19454336D02*
X21040058Y-19444812D01*
X21040058Y-19444812D02*
X21049582Y-19425764D01*
X21049582Y-19425764D02*
X21068630Y-19416240D01*
X21068630Y-19416240D02*
X21097201Y-19416240D01*
X21097201Y-19416240D02*
X21116249Y-19425764D01*
X21192439Y-19625764D02*
X21201963Y-19616240D01*
X21201963Y-19616240D02*
X21221011Y-19587669D01*
X21221011Y-19587669D02*
X21230534Y-19568621D01*
X21230534Y-19568621D02*
X21240058Y-19540050D01*
X21240058Y-19540050D02*
X21249582Y-19492431D01*
X21249582Y-19492431D02*
X21249582Y-19454336D01*
X21249582Y-19454336D02*
X21240058Y-19406717D01*
X21240058Y-19406717D02*
X21230534Y-19378145D01*
X21230534Y-19378145D02*
X21221011Y-19359098D01*
X21221011Y-19359098D02*
X21201963Y-19330526D01*
X21201963Y-19330526D02*
X21192439Y-19321002D01*
X21554344Y-19625764D02*
X21544820Y-19616240D01*
X21544820Y-19616240D02*
X21525773Y-19587669D01*
X21525773Y-19587669D02*
X21516249Y-19568621D01*
X21516249Y-19568621D02*
X21506725Y-19540050D01*
X21506725Y-19540050D02*
X21497201Y-19492431D01*
X21497201Y-19492431D02*
X21497201Y-19454336D01*
X21497201Y-19454336D02*
X21506725Y-19406717D01*
X21506725Y-19406717D02*
X21516249Y-19378145D01*
X21516249Y-19378145D02*
X21525773Y-19359098D01*
X21525773Y-19359098D02*
X21544820Y-19330526D01*
X21544820Y-19330526D02*
X21554344Y-19321002D01*
X21630534Y-19416240D02*
X21630534Y-19549574D01*
X21630534Y-19435288D02*
X21640058Y-19425764D01*
X21640058Y-19425764D02*
X21659106Y-19416240D01*
X21659106Y-19416240D02*
X21687677Y-19416240D01*
X21687677Y-19416240D02*
X21706725Y-19425764D01*
X21706725Y-19425764D02*
X21716249Y-19444812D01*
X21716249Y-19444812D02*
X21716249Y-19549574D01*
X21840058Y-19549574D02*
X21821011Y-19540050D01*
X21821011Y-19540050D02*
X21811487Y-19530526D01*
X21811487Y-19530526D02*
X21801963Y-19511479D01*
X21801963Y-19511479D02*
X21801963Y-19454336D01*
X21801963Y-19454336D02*
X21811487Y-19435288D01*
X21811487Y-19435288D02*
X21821011Y-19425764D01*
X21821011Y-19425764D02*
X21840058Y-19416240D01*
X21840058Y-19416240D02*
X21868630Y-19416240D01*
X21868630Y-19416240D02*
X21887677Y-19425764D01*
X21887677Y-19425764D02*
X21897201Y-19435288D01*
X21897201Y-19435288D02*
X21906725Y-19454336D01*
X21906725Y-19454336D02*
X21906725Y-19511479D01*
X21906725Y-19511479D02*
X21897201Y-19530526D01*
X21897201Y-19530526D02*
X21887677Y-19540050D01*
X21887677Y-19540050D02*
X21868630Y-19549574D01*
X21868630Y-19549574D02*
X21840058Y-19549574D01*
X21963868Y-19416240D02*
X22040058Y-19416240D01*
X21992439Y-19349574D02*
X21992439Y-19521002D01*
X21992439Y-19521002D02*
X22001963Y-19540050D01*
X22001963Y-19540050D02*
X22021011Y-19549574D01*
X22021011Y-19549574D02*
X22040058Y-19549574D01*
X22259106Y-19416240D02*
X22259106Y-19616240D01*
X22259106Y-19425764D02*
X22278154Y-19416240D01*
X22278154Y-19416240D02*
X22316249Y-19416240D01*
X22316249Y-19416240D02*
X22335296Y-19425764D01*
X22335296Y-19425764D02*
X22344820Y-19435288D01*
X22344820Y-19435288D02*
X22354344Y-19454336D01*
X22354344Y-19454336D02*
X22354344Y-19511479D01*
X22354344Y-19511479D02*
X22344820Y-19530526D01*
X22344820Y-19530526D02*
X22335296Y-19540050D01*
X22335296Y-19540050D02*
X22316249Y-19549574D01*
X22316249Y-19549574D02*
X22278154Y-19549574D01*
X22278154Y-19549574D02*
X22259106Y-19540050D01*
X22468630Y-19549574D02*
X22449582Y-19540050D01*
X22449582Y-19540050D02*
X22440058Y-19521002D01*
X22440058Y-19521002D02*
X22440058Y-19349574D01*
X22630534Y-19549574D02*
X22630534Y-19444812D01*
X22630534Y-19444812D02*
X22621011Y-19425764D01*
X22621011Y-19425764D02*
X22601963Y-19416240D01*
X22601963Y-19416240D02*
X22563868Y-19416240D01*
X22563868Y-19416240D02*
X22544820Y-19425764D01*
X22630534Y-19540050D02*
X22611487Y-19549574D01*
X22611487Y-19549574D02*
X22563868Y-19549574D01*
X22563868Y-19549574D02*
X22544820Y-19540050D01*
X22544820Y-19540050D02*
X22535296Y-19521002D01*
X22535296Y-19521002D02*
X22535296Y-19501955D01*
X22535296Y-19501955D02*
X22544820Y-19482907D01*
X22544820Y-19482907D02*
X22563868Y-19473383D01*
X22563868Y-19473383D02*
X22611487Y-19473383D01*
X22611487Y-19473383D02*
X22630534Y-19463860D01*
X22697201Y-19416240D02*
X22773392Y-19416240D01*
X22725773Y-19349574D02*
X22725773Y-19521002D01*
X22725773Y-19521002D02*
X22735296Y-19540050D01*
X22735296Y-19540050D02*
X22754344Y-19549574D01*
X22754344Y-19549574D02*
X22773392Y-19549574D01*
X22916249Y-19540050D02*
X22897201Y-19549574D01*
X22897201Y-19549574D02*
X22859106Y-19549574D01*
X22859106Y-19549574D02*
X22840058Y-19540050D01*
X22840058Y-19540050D02*
X22830534Y-19521002D01*
X22830534Y-19521002D02*
X22830534Y-19444812D01*
X22830534Y-19444812D02*
X22840058Y-19425764D01*
X22840058Y-19425764D02*
X22859106Y-19416240D01*
X22859106Y-19416240D02*
X22897201Y-19416240D01*
X22897201Y-19416240D02*
X22916249Y-19425764D01*
X22916249Y-19425764D02*
X22925773Y-19444812D01*
X22925773Y-19444812D02*
X22925773Y-19463860D01*
X22925773Y-19463860D02*
X22830534Y-19482907D01*
X23097201Y-19549574D02*
X23097201Y-19349574D01*
X23097201Y-19540050D02*
X23078154Y-19549574D01*
X23078154Y-19549574D02*
X23040058Y-19549574D01*
X23040058Y-19549574D02*
X23021011Y-19540050D01*
X23021011Y-19540050D02*
X23011487Y-19530526D01*
X23011487Y-19530526D02*
X23001963Y-19511479D01*
X23001963Y-19511479D02*
X23001963Y-19454336D01*
X23001963Y-19454336D02*
X23011487Y-19435288D01*
X23011487Y-19435288D02*
X23021011Y-19425764D01*
X23021011Y-19425764D02*
X23040058Y-19416240D01*
X23040058Y-19416240D02*
X23078154Y-19416240D01*
X23078154Y-19416240D02*
X23097201Y-19425764D01*
X23173392Y-19625764D02*
X23182915Y-19616240D01*
X23182915Y-19616240D02*
X23201963Y-19587669D01*
X23201963Y-19587669D02*
X23211487Y-19568621D01*
X23211487Y-19568621D02*
X23221011Y-19540050D01*
X23221011Y-19540050D02*
X23230534Y-19492431D01*
X23230534Y-19492431D02*
X23230534Y-19454336D01*
X23230534Y-19454336D02*
X23221011Y-19406717D01*
X23221011Y-19406717D02*
X23211487Y-19378145D01*
X23211487Y-19378145D02*
X23201963Y-19359098D01*
X23201963Y-19359098D02*
X23182915Y-19330526D01*
X23182915Y-19330526D02*
X23173392Y-19321002D01*
M02*
